<?xml version="1.0" standalone="no"?>
<!DOCTYPE svg PUBLIC "-//W3C//DTD SVG 1.1//EN" "http://www.w3.org/Graphics/SVG/1.1/DTD/svg11.dtd">
<svg version="1.1" width="1200" height="486" onload="init(evt)" viewBox="0 0 1200 486" xmlns="http://www.w3.org/2000/svg" xmlns:xlink="http://www.w3.org/1999/xlink">
<!-- Flame graph stack visualization. See https://github.com/brendangregg/FlameGraph for latest version, and http://www.brendangregg.com/flamegraphs.html for examples. -->
<!-- NOTES:  -->
<defs>
	<linearGradient id="background" y1="0" y2="1" x1="0" x2="0" >
		<stop stop-color="#eeeeee" offset="5%" />
		<stop stop-color="#eeeeb0" offset="95%" />
	</linearGradient>
</defs>
<style type="text/css">
	text { font-family:Verdana; font-size:12px; fill:rgb(0,0,0); }
	#search, #ignorecase { opacity:0.1; cursor:pointer; }
	#search:hover, #search.show, #ignorecase:hover, #ignorecase.show { opacity:1; }
	#subtitle { text-anchor:middle; font-color:rgb(160,160,160); }
	#title { text-anchor:middle; font-size:17px}
	#unzoom { cursor:pointer; }
	#frames > *:hover { stroke:black; stroke-width:0.5; cursor:pointer; }
	.hide { display:none; }
	.parent { opacity:0.5; }
</style>
<script type="text/ecmascript">
<![CDATA[
	"use strict";
	var details, searchbtn, unzoombtn, matchedtxt, svg, searching, currentSearchTerm, ignorecase, ignorecaseBtn;
	function init(evt) {
		details = document.getElementById("details").firstChild;
		searchbtn = document.getElementById("search");
		ignorecaseBtn = document.getElementById("ignorecase");
		unzoombtn = document.getElementById("unzoom");
		matchedtxt = document.getElementById("matched");
		svg = document.getElementsByTagName("svg")[0];
		searching = 0;
		currentSearchTerm = null;

		// use GET parameters to restore a flamegraphs state.
		var params = get_params();
		if (params.x && params.y)
			zoom(find_group(document.querySelector('[x="' + params.x + '"][y="' + params.y + '"]')));
                if (params.s) search(params.s);
	}

	// event listeners
	window.addEventListener("click", function(e) {
		var target = find_group(e.target);
		if (target) {
			if (target.nodeName == "a") {
				if (e.ctrlKey === false) return;
				e.preventDefault();
			}
			if (target.classList.contains("parent")) unzoom(true);
			zoom(target);
			if (!document.querySelector('.parent')) {
				// we have basically done a clearzoom so clear the url
				var params = get_params();
				if (params.x) delete params.x;
				if (params.y) delete params.y;
				history.replaceState(null, null, parse_params(params));
				unzoombtn.classList.add("hide");
				return;
			}

			// set parameters for zoom state
			var el = target.querySelector("rect");
			if (el && el.attributes && el.attributes.y && el.attributes._orig_x) {
				var params = get_params()
				params.x = el.attributes._orig_x.value;
				params.y = el.attributes.y.value;
				history.replaceState(null, null, parse_params(params));
			}
		}
		else if (e.target.id == "unzoom") clearzoom();
		else if (e.target.id == "search") search_prompt();
		else if (e.target.id == "ignorecase") toggle_ignorecase();
	}, false)

	// mouse-over for info
	// show
	window.addEventListener("mouseover", function(e) {
		var target = find_group(e.target);
		if (target) details.nodeValue = "Function: " + g_to_text(target);
	}, false)

	// clear
	window.addEventListener("mouseout", function(e) {
		var target = find_group(e.target);
		if (target) details.nodeValue = ' ';
	}, false)

	// ctrl-F for search
	// ctrl-I to toggle case-sensitive search
	window.addEventListener("keydown",function (e) {
		if (e.keyCode === 114 || (e.ctrlKey && e.keyCode === 70)) {
			e.preventDefault();
			search_prompt();
		}
		else if (e.ctrlKey && e.keyCode === 73) {
			e.preventDefault();
			toggle_ignorecase();
		}
	}, false)

	// functions
	function get_params() {
		var params = {};
		var paramsarr = window.location.search.substr(1).split('&');
		for (var i = 0; i < paramsarr.length; ++i) {
			var tmp = paramsarr[i].split("=");
			if (!tmp[0] || !tmp[1]) continue;
			params[tmp[0]]  = decodeURIComponent(tmp[1]);
		}
		return params;
	}
	function parse_params(params) {
		var uri = "?";
		for (var key in params) {
			uri += key + '=' + encodeURIComponent(params[key]) + '&';
		}
		if (uri.slice(-1) == "&")
			uri = uri.substring(0, uri.length - 1);
		if (uri == '?')
			uri = window.location.href.split('?')[0];
		return uri;
	}
	function find_child(node, selector) {
		var children = node.querySelectorAll(selector);
		if (children.length) return children[0];
	}
	function find_group(node) {
		var parent = node.parentElement;
		if (!parent) return;
		if (parent.id == "frames") return node;
		return find_group(parent);
	}
	function orig_save(e, attr, val) {
		if (e.attributes["_orig_" + attr] != undefined) return;
		if (e.attributes[attr] == undefined) return;
		if (val == undefined) val = e.attributes[attr].value;
		e.setAttribute("_orig_" + attr, val);
	}
	function orig_load(e, attr) {
		if (e.attributes["_orig_"+attr] == undefined) return;
		e.attributes[attr].value = e.attributes["_orig_" + attr].value;
		e.removeAttribute("_orig_"+attr);
	}
	function g_to_text(e) {
		var text = find_child(e, "title").firstChild.nodeValue;
		return (text)
	}
	function g_to_func(e) {
		var func = g_to_text(e);
		// if there's any manipulation we want to do to the function
		// name before it's searched, do it here before returning.
		return (func);
	}
	function update_text(e) {
		var r = find_child(e, "rect");
		var t = find_child(e, "text");
		var w = parseFloat(r.attributes.width.value) -3;
		var txt = find_child(e, "title").textContent.replace(/\([^(]*\)$/,"");
		t.attributes.x.value = parseFloat(r.attributes.x.value) + 3;

		// Smaller than this size won't fit anything
		if (w < 2 * 12 * 0.59) {
			t.textContent = "";
			return;
		}

		t.textContent = txt;
		var sl = t.getSubStringLength(0, txt.length);
		// check if only whitespace or if we can fit the entire string into width w
		if (/^ *$/.test(txt) || sl < w)
			return;

		// this isn't perfect, but gives a good starting point
		// and avoids calling getSubStringLength too often
		var start = Math.floor((w/sl) * txt.length);
		for (var x = start; x > 0; x = x-2) {
			if (t.getSubStringLength(0, x + 2) <= w) {
				t.textContent = txt.substring(0, x) + "..";
				return;
			}
		}
		t.textContent = "";
	}

	// zoom
	function zoom_reset(e) {
		if (e.attributes != undefined) {
			orig_load(e, "x");
			orig_load(e, "width");
		}
		if (e.childNodes == undefined) return;
		for (var i = 0, c = e.childNodes; i < c.length; i++) {
			zoom_reset(c[i]);
		}
	}
	function zoom_child(e, x, ratio) {
		if (e.attributes != undefined) {
			if (e.attributes.x != undefined) {
				orig_save(e, "x");
				e.attributes.x.value = (parseFloat(e.attributes.x.value) - x - 10) * ratio + 10;
				if (e.tagName == "text")
					e.attributes.x.value = find_child(e.parentNode, "rect[x]").attributes.x.value + 3;
			}
			if (e.attributes.width != undefined) {
				orig_save(e, "width");
				e.attributes.width.value = parseFloat(e.attributes.width.value) * ratio;
			}
		}

		if (e.childNodes == undefined) return;
		for (var i = 0, c = e.childNodes; i < c.length; i++) {
			zoom_child(c[i], x - 10, ratio);
		}
	}
	function zoom_parent(e) {
		if (e.attributes) {
			if (e.attributes.x != undefined) {
				orig_save(e, "x");
				e.attributes.x.value = 10;
			}
			if (e.attributes.width != undefined) {
				orig_save(e, "width");
				e.attributes.width.value = parseInt(svg.width.baseVal.value) - (10 * 2);
			}
		}
		if (e.childNodes == undefined) return;
		for (var i = 0, c = e.childNodes; i < c.length; i++) {
			zoom_parent(c[i]);
		}
	}
	function zoom(node) {
		var attr = find_child(node, "rect").attributes;
		var width = parseFloat(attr.width.value);
		var xmin = parseFloat(attr.x.value);
		var xmax = parseFloat(xmin + width);
		var ymin = parseFloat(attr.y.value);
		var ratio = (svg.width.baseVal.value - 2 * 10) / width;

		// XXX: Workaround for JavaScript float issues (fix me)
		var fudge = 0.0001;

		unzoombtn.classList.remove("hide");

		var el = document.getElementById("frames").children;
		for (var i = 0; i < el.length; i++) {
			var e = el[i];
			var a = find_child(e, "rect").attributes;
			var ex = parseFloat(a.x.value);
			var ew = parseFloat(a.width.value);
			var upstack;
			// Is it an ancestor
			if (0 == 0) {
				upstack = parseFloat(a.y.value) > ymin;
			} else {
				upstack = parseFloat(a.y.value) < ymin;
			}
			if (upstack) {
				// Direct ancestor
				if (ex <= xmin && (ex+ew+fudge) >= xmax) {
					e.classList.add("parent");
					zoom_parent(e);
					update_text(e);
				}
				// not in current path
				else
					e.classList.add("hide");
			}
			// Children maybe
			else {
				// no common path
				if (ex < xmin || ex + fudge >= xmax) {
					e.classList.add("hide");
				}
				else {
					zoom_child(e, xmin, ratio);
					update_text(e);
				}
			}
		}
		search();
	}
	function unzoom(dont_update_text) {
		unzoombtn.classList.add("hide");
		var el = document.getElementById("frames").children;
		for(var i = 0; i < el.length; i++) {
			el[i].classList.remove("parent");
			el[i].classList.remove("hide");
			zoom_reset(el[i]);
			if(!dont_update_text) update_text(el[i]);
		}
		search();
	}
	function clearzoom() {
		unzoom();

		// remove zoom state
		var params = get_params();
		if (params.x) delete params.x;
		if (params.y) delete params.y;
		history.replaceState(null, null, parse_params(params));
	}

	// search
	function toggle_ignorecase() {
		ignorecase = !ignorecase;
		if (ignorecase) {
			ignorecaseBtn.classList.add("show");
		} else {
			ignorecaseBtn.classList.remove("show");
		}
		reset_search();
		search();
	}
	function reset_search() {
		var el = document.querySelectorAll("#frames rect");
		for (var i = 0; i < el.length; i++) {
			orig_load(el[i], "fill")
		}
		var params = get_params();
		delete params.s;
		history.replaceState(null, null, parse_params(params));
	}
	function search_prompt() {
		if (!searching) {
			var term = prompt("Enter a search term (regexp " +
			    "allowed, eg: ^ext4_)"
			    + (ignorecase ? ", ignoring case" : "")
			    + "\nPress Ctrl-i to toggle case sensitivity", "");
			if (term != null) search(term);
		} else {
			reset_search();
			searching = 0;
			currentSearchTerm = null;
			searchbtn.classList.remove("show");
			searchbtn.firstChild.nodeValue = "Search"
			matchedtxt.classList.add("hide");
			matchedtxt.firstChild.nodeValue = ""
		}
	}
	function search(term) {
		if (term) currentSearchTerm = term;
		if (currentSearchTerm === null) return;

		var re = new RegExp(currentSearchTerm, ignorecase ? 'i' : '');
		var el = document.getElementById("frames").children;
		var matches = new Object();
		var maxwidth = 0;
		for (var i = 0; i < el.length; i++) {
			var e = el[i];
			var func = g_to_func(e);
			var rect = find_child(e, "rect");
			if (func == null || rect == null)
				continue;

			// Save max width. Only works as we have a root frame
			var w = parseFloat(rect.attributes.width.value);
			if (w > maxwidth)
				maxwidth = w;

			if (func.match(re)) {
				// highlight
				var x = parseFloat(rect.attributes.x.value);
				orig_save(rect, "fill");
				rect.attributes.fill.value = "rgb(230,0,230)";

				// remember matches
				if (matches[x] == undefined) {
					matches[x] = w;
				} else {
					if (w > matches[x]) {
						// overwrite with parent
						matches[x] = w;
					}
				}
				searching = 1;
			}
		}
		if (!searching)
			return;
		var params = get_params();
		params.s = currentSearchTerm;
		history.replaceState(null, null, parse_params(params));

		searchbtn.classList.add("show");
		searchbtn.firstChild.nodeValue = "Reset Search";

		// calculate percent matched, excluding vertical overlap
		var count = 0;
		var lastx = -1;
		var lastw = 0;
		var keys = Array();
		for (k in matches) {
			if (matches.hasOwnProperty(k))
				keys.push(k);
		}
		// sort the matched frames by their x location
		// ascending, then width descending
		keys.sort(function(a, b){
			return a - b;
		});
		// Step through frames saving only the biggest bottom-up frames
		// thanks to the sort order. This relies on the tree property
		// where children are always smaller than their parents.
		var fudge = 0.0001;	// JavaScript floating point
		for (var k in keys) {
			var x = parseFloat(keys[k]);
			var w = matches[keys[k]];
			if (x >= lastx + lastw - fudge) {
				count += w;
				lastx = x;
				lastw = w;
			}
		}
		// display matched percent
		matchedtxt.classList.remove("hide");
		var pct = 100 * count / maxwidth;
		if (pct != 100) pct = pct.toFixed(1)
		matchedtxt.firstChild.nodeValue = "Matched: " + pct + "%";
	}
]]>
</script>
<rect x="0.0" y="0" width="1200.0" height="486.0" fill="url(#background)"  />
<text id="title" x="600.00" y="24" >echo-dpumesh @ 256B K=1 (sat)</text>
<text id="details" x="10.00" y="469" > </text>
<text id="unzoom" x="10.00" y="24" class="hide">Reset Zoom</text>
<text id="search" x="1090.00" y="24" >Search</text>
<text id="ignorecase" x="1174.00" y="24" >ic</text>
<text id="matched" x="1090.00" y="469" > </text>
<g id="frames">
<g >
<title>priv_doca_cq_poll_one (733,459,551 samples, 1.98%)</title><rect x="1131.5" y="277" width="23.4" height="15.0" fill="rgb(243,177,42)" rx="2" ry="2" />
<text  x="1134.54" y="287.5" >p..</text>
</g>
<g >
<title>__hrtimer_run_queues (12,223,422 samples, 0.03%)</title><rect x="1156.5" y="261" width="0.4" height="15.0" fill="rgb(237,150,35)" rx="2" ry="2" />
<text  x="1159.47" y="271.5" ></text>
</g>
<g >
<title>schedule (12,223,343 samples, 0.03%)</title><rect x="1131.2" y="197" width="0.3" height="15.0" fill="rgb(254,229,54)" rx="2" ry="2" />
<text  x="1134.15" y="207.5" ></text>
</g>
<g >
<title>pe_progress_fn (20,381,594,939 samples, 54.97%)</title><rect x="540.6" y="373" width="648.6" height="15.0" fill="rgb(223,86,20)" rx="2" ry="2" />
<text  x="543.55" y="383.5" >pe_progress_fn</text>
</g>
<g >
<title>exit_to_user_mode_loop (12,223,343 samples, 0.03%)</title><rect x="1131.2" y="213" width="0.3" height="15.0" fill="rgb(224,90,21)" rx="2" ry="2" />
<text  x="1134.15" y="223.5" ></text>
</g>
<g >
<title>psi_task_switch (12,224,634 samples, 0.03%)</title><rect x="1188.8" y="229" width="0.4" height="15.0" fill="rgb(230,118,28)" rx="2" ry="2" />
<text  x="1191.78" y="239.5" ></text>
</g>
<g >
<title>asm_sysvec_apic_timer_interrupt (24,449,555 samples, 0.07%)</title><rect x="1156.5" y="325" width="0.7" height="15.0" fill="rgb(232,127,30)" rx="2" ry="2" />
<text  x="1159.47" y="335.5" ></text>
</g>
<g >
<title>try_to_wake_up (24,444,944 samples, 0.07%)</title><rect x="1154.9" y="181" width="0.8" height="15.0" fill="rgb(220,70,16)" rx="2" ry="2" />
<text  x="1157.89" y="191.5" ></text>
</g>
<g >
<title>hrtimer_nanosleep (434,382,733 samples, 1.17%)</title><rect x="522.3" y="245" width="13.8" height="15.0" fill="rgb(237,147,35)" rx="2" ry="2" />
<text  x="525.26" y="255.5" ></text>
</g>
<g >
<title>[libdoca_comch.so.3.1.0105] (927,739,783 samples, 2.50%)</title><rect x="170.3" y="389" width="29.5" height="15.0" fill="rgb(227,102,24)" rx="2" ry="2" />
<text  x="173.33" y="399.5" >[l..</text>
</g>
<g >
<title>native_write_msr (140,262,536 samples, 0.38%)</title><rect x="531.6" y="117" width="4.5" height="15.0" fill="rgb(237,151,36)" rx="2" ry="2" />
<text  x="534.62" y="127.5" ></text>
</g>
<g >
<title>pick_next_task (12,223,343 samples, 0.03%)</title><rect x="1131.2" y="165" width="0.3" height="15.0" fill="rgb(206,4,1)" rx="2" ry="2" />
<text  x="1134.15" y="175.5" ></text>
</g>
<g >
<title>asm_sysvec_apic_timer_interrupt (86,193,413 samples, 0.23%)</title><rect x="1186.4" y="341" width="2.8" height="15.0" fill="rgb(232,127,30)" rx="2" ry="2" />
<text  x="1189.42" y="351.5" ></text>
</g>
<g >
<title>__schedule (12,224,016 samples, 0.03%)</title><rect x="1153.7" y="165" width="0.4" height="15.0" fill="rgb(227,103,24)" rx="2" ry="2" />
<text  x="1156.72" y="175.5" ></text>
</g>
<g >
<title>asm_sysvec_apic_timer_interrupt (24,449,308 samples, 0.07%)</title><rect x="1155.7" y="309" width="0.8" height="15.0" fill="rgb(232,127,30)" rx="2" ry="2" />
<text  x="1158.69" y="319.5" ></text>
</g>
<g >
<title>schedule (140,278,631 samples, 0.38%)</title><rect x="531.6" y="213" width="4.5" height="15.0" fill="rgb(254,229,54)" rx="2" ry="2" />
<text  x="534.62" y="223.5" ></text>
</g>
<g >
<title>irqentry_exit_to_user_mode (12,226,343 samples, 0.03%)</title><rect x="1098.1" y="213" width="0.3" height="15.0" fill="rgb(254,229,54)" rx="2" ry="2" />
<text  x="1101.05" y="223.5" ></text>
</g>
<g >
<title>merge_sched_in (12,224,016 samples, 0.03%)</title><rect x="1153.7" y="69" width="0.4" height="15.0" fill="rgb(233,132,31)" rx="2" ry="2" />
<text  x="1156.72" y="79.5" ></text>
</g>
<g >
<title>__GI___clock_nanosleep (434,382,733 samples, 1.17%)</title><rect x="522.3" y="341" width="13.8" height="15.0" fill="rgb(232,126,30)" rx="2" ry="2" />
<text  x="525.26" y="351.5" ></text>
</g>
<g >
<title>event_sched_in (12,220,441 samples, 0.03%)</title><rect x="1188.4" y="133" width="0.4" height="15.0" fill="rgb(217,57,13)" rx="2" ry="2" />
<text  x="1191.39" y="143.5" ></text>
</g>
<g >
<title>tick_sched_timer (12,226,376 samples, 0.03%)</title><rect x="1155.7" y="229" width="0.4" height="15.0" fill="rgb(254,227,54)" rx="2" ry="2" />
<text  x="1158.69" y="239.5" ></text>
</g>
<g >
<title>[[heap]] (5,037,946,433 samples, 13.59%)</title><rect x="10.0" y="405" width="160.3" height="15.0" fill="rgb(211,31,7)" rx="2" ry="2" />
<text  x="13.00" y="415.5" >[[heap]]</text>
</g>
<g >
<title>read_tsc (140,262,536 samples, 0.38%)</title><rect x="527.2" y="181" width="4.4" height="15.0" fill="rgb(206,7,1)" rx="2" ry="2" />
<text  x="530.16" y="191.5" ></text>
</g>
<g >
<title>priv_doca_cq_poll_one (36,675,326 samples, 0.10%)</title><rect x="521.1" y="389" width="1.2" height="15.0" fill="rgb(243,177,42)" rx="2" ry="2" />
<text  x="524.10" y="399.5" ></text>
</g>
<g >
<title>enqueue_task (12,227,133 samples, 0.03%)</title><rect x="1186.4" y="197" width="0.4" height="15.0" fill="rgb(230,116,27)" rx="2" ry="2" />
<text  x="1189.42" y="207.5" ></text>
</g>
<g >
<title>__perf_event_task_sched_in (12,226,343 samples, 0.03%)</title><rect x="1098.1" y="133" width="0.3" height="15.0" fill="rgb(231,121,29)" rx="2" ry="2" />
<text  x="1101.05" y="143.5" ></text>
</g>
<g >
<title>exit_to_user_mode_loop (12,226,133 samples, 0.03%)</title><rect x="1156.9" y="261" width="0.3" height="15.0" fill="rgb(224,90,21)" rx="2" ry="2" />
<text  x="1159.86" y="271.5" ></text>
</g>
<g >
<title>[libdoca_comch.so.3.1.0105] (1,503,873,369 samples, 4.06%)</title><rect x="345.5" y="405" width="47.8" height="15.0" fill="rgb(227,102,24)" rx="2" ry="2" />
<text  x="348.48" y="415.5" >[lib..</text>
</g>
<g >
<title>ctx_sched_in (12,224,016 samples, 0.03%)</title><rect x="1153.7" y="101" width="0.4" height="15.0" fill="rgb(230,117,28)" rx="2" ry="2" />
<text  x="1156.72" y="111.5" ></text>
</g>
<g >
<title>update_process_times (12,222,558 samples, 0.03%)</title><rect x="1186.8" y="229" width="0.4" height="15.0" fill="rgb(250,209,50)" rx="2" ry="2" />
<text  x="1189.81" y="239.5" ></text>
</g>
<g >
<title>scheduler_tick (12,222,558 samples, 0.03%)</title><rect x="1186.8" y="213" width="0.4" height="15.0" fill="rgb(246,190,45)" rx="2" ry="2" />
<text  x="1189.81" y="223.5" ></text>
</g>
<g >
<title>__sysvec_apic_timer_interrupt (24,444,944 samples, 0.07%)</title><rect x="1154.9" y="261" width="0.8" height="15.0" fill="rgb(242,173,41)" rx="2" ry="2" />
<text  x="1157.89" y="271.5" ></text>
</g>
<g >
<title>sysvec_apic_timer_interrupt (36,661,875 samples, 0.10%)</title><rect x="1153.7" y="245" width="1.2" height="15.0" fill="rgb(220,69,16)" rx="2" ry="2" />
<text  x="1156.72" y="255.5" ></text>
</g>
<g >
<title>visit_groups_merge.constprop.0.isra.0 (12,220,441 samples, 0.03%)</title><rect x="1188.4" y="165" width="0.4" height="15.0" fill="rgb(220,70,16)" rx="2" ry="2" />
<text  x="1191.39" y="175.5" ></text>
</g>
<g >
<title>irqentry_exit (12,223,343 samples, 0.03%)</title><rect x="1131.2" y="245" width="0.3" height="15.0" fill="rgb(219,66,15)" rx="2" ry="2" />
<text  x="1134.15" y="255.5" ></text>
</g>
<g >
<title>[libdoca_comch.so.3.1.0105] (15,905,810,539 samples, 42.90%)</title><rect x="680.2" y="341" width="506.2" height="15.0" fill="rgb(227,102,24)" rx="2" ry="2" />
<text  x="683.24" y="351.5" >[libdoca_comch.so.3.1.0105]</text>
</g>
<g >
<title>pick_next_task_fair (12,223,343 samples, 0.03%)</title><rect x="1131.2" y="149" width="0.3" height="15.0" fill="rgb(242,170,40)" rx="2" ry="2" />
<text  x="1134.15" y="159.5" ></text>
</g>
<g >
<title>visit_groups_merge.constprop.0.isra.0 (12,226,343 samples, 0.03%)</title><rect x="1098.1" y="85" width="0.3" height="15.0" fill="rgb(220,70,16)" rx="2" ry="2" />
<text  x="1101.05" y="95.5" ></text>
</g>
<g >
<title>__hrtimer_run_queues (24,444,944 samples, 0.07%)</title><rect x="1154.9" y="229" width="0.8" height="15.0" fill="rgb(237,150,35)" rx="2" ry="2" />
<text  x="1157.89" y="239.5" ></text>
</g>
<g >
<title>entry_SYSCALL_64_after_hwframe (434,382,733 samples, 1.17%)</title><rect x="522.3" y="325" width="13.8" height="15.0" fill="rgb(218,63,15)" rx="2" ry="2" />
<text  x="525.26" y="335.5" ></text>
</g>
<g >
<title>change_p4d_range (24,437,859 samples, 0.07%)</title><rect x="1154.1" y="101" width="0.8" height="15.0" fill="rgb(222,82,19)" rx="2" ry="2" />
<text  x="1157.11" y="111.5" ></text>
</g>
<g >
<title>finish_task_switch.isra.0 (24,445,211 samples, 0.07%)</title><rect x="1188.0" y="229" width="0.8" height="15.0" fill="rgb(246,189,45)" rx="2" ry="2" />
<text  x="1191.00" y="239.5" ></text>
</g>
<g >
<title>tick_sched_handle (12,226,376 samples, 0.03%)</title><rect x="1155.7" y="213" width="0.4" height="15.0" fill="rgb(219,68,16)" rx="2" ry="2" />
<text  x="1158.69" y="223.5" ></text>
</g>
<g >
<title>asm_sysvec_apic_timer_interrupt (24,451,980 samples, 0.07%)</title><rect x="1189.2" y="405" width="0.8" height="15.0" fill="rgb(232,127,30)" rx="2" ry="2" />
<text  x="1192.22" y="415.5" ></text>
</g>
<g >
<title>x86_pmu_enable (140,262,536 samples, 0.38%)</title><rect x="531.6" y="149" width="4.5" height="15.0" fill="rgb(244,179,43)" rx="2" ry="2" />
<text  x="534.62" y="159.5" ></text>
</g>
<g >
<title>sysvec_apic_timer_interrupt (24,449,308 samples, 0.07%)</title><rect x="1155.7" y="293" width="0.8" height="15.0" fill="rgb(220,69,16)" rx="2" ry="2" />
<text  x="1158.69" y="303.5" ></text>
</g>
<g >
<title>finish_task_switch.isra.0 (140,278,631 samples, 0.38%)</title><rect x="531.6" y="181" width="4.5" height="15.0" fill="rgb(246,189,45)" rx="2" ry="2" />
<text  x="534.62" y="191.5" ></text>
</g>
<g >
<title>__perf_event_task_sched_in (24,445,211 samples, 0.07%)</title><rect x="1188.0" y="213" width="0.8" height="15.0" fill="rgb(231,121,29)" rx="2" ry="2" />
<text  x="1191.00" y="223.5" ></text>
</g>
<g >
<title>__schedule (12,223,343 samples, 0.03%)</title><rect x="1131.2" y="181" width="0.3" height="15.0" fill="rgb(227,103,24)" rx="2" ry="2" />
<text  x="1134.15" y="191.5" ></text>
</g>
<g >
<title>echo_dpumesh (37,079,370,854 samples, 100.00%)</title><rect x="10.0" y="421" width="1180.0" height="15.0" fill="rgb(222,80,19)" rx="2" ry="2" />
<text  x="13.00" y="431.5" >echo_dpumesh</text>
</g>
<g >
<title>finish_task_switch.isra.0 (12,224,016 samples, 0.03%)</title><rect x="1153.7" y="149" width="0.4" height="15.0" fill="rgb(246,189,45)" rx="2" ry="2" />
<text  x="1156.72" y="159.5" ></text>
</g>
<g >
<title>common_nsleep (434,382,733 samples, 1.17%)</title><rect x="522.3" y="261" width="13.8" height="15.0" fill="rgb(227,105,25)" rx="2" ry="2" />
<text  x="525.26" y="271.5" ></text>
</g>
<g >
<title>task_numa_work (24,437,859 samples, 0.07%)</title><rect x="1154.1" y="165" width="0.8" height="15.0" fill="rgb(215,48,11)" rx="2" ry="2" />
<text  x="1157.11" y="175.5" ></text>
</g>
<g >
<title>doca_pe_progress (1,159,321,656 samples, 3.13%)</title><rect x="484.2" y="389" width="36.9" height="15.0" fill="rgb(214,41,9)" rx="2" ry="2" />
<text  x="487.20" y="399.5" >doc..</text>
</g>
<g >
<title>psi_task_change (12,221,916 samples, 0.03%)</title><rect x="1155.3" y="133" width="0.4" height="15.0" fill="rgb(215,46,11)" rx="2" ry="2" />
<text  x="1158.27" y="143.5" ></text>
</g>
<g >
<title>ctx_sched_in (12,220,441 samples, 0.03%)</title><rect x="1188.4" y="181" width="0.4" height="15.0" fill="rgb(230,117,28)" rx="2" ry="2" />
<text  x="1191.39" y="191.5" ></text>
</g>
<g >
<title>x64_sys_call (434,382,733 samples, 1.17%)</title><rect x="522.3" y="293" width="13.8" height="15.0" fill="rgb(247,194,46)" rx="2" ry="2" />
<text  x="525.26" y="303.5" ></text>
</g>
<g >
<title>__GI___nanosleep (434,382,733 samples, 1.17%)</title><rect x="522.3" y="357" width="13.8" height="15.0" fill="rgb(231,119,28)" rx="2" ry="2" />
<text  x="525.26" y="367.5" ></text>
</g>
<g >
<title>__schedule (12,226,133 samples, 0.03%)</title><rect x="1156.9" y="229" width="0.3" height="15.0" fill="rgb(227,103,24)" rx="2" ry="2" />
<text  x="1159.86" y="239.5" ></text>
</g>
<g >
<title>merge_sched_in (12,226,343 samples, 0.03%)</title><rect x="1098.1" y="69" width="0.3" height="15.0" fill="rgb(233,132,31)" rx="2" ry="2" />
<text  x="1101.05" y="79.5" ></text>
</g>
<g >
<title>wake_up_process (12,227,133 samples, 0.03%)</title><rect x="1186.4" y="245" width="0.4" height="15.0" fill="rgb(213,37,8)" rx="2" ry="2" />
<text  x="1189.42" y="255.5" ></text>
</g>
<g >
<title>merge_sched_in (12,220,441 samples, 0.03%)</title><rect x="1188.4" y="149" width="0.4" height="15.0" fill="rgb(233,132,31)" rx="2" ry="2" />
<text  x="1191.39" y="159.5" ></text>
</g>
<g >
<title>__schedule (36,669,845 samples, 0.10%)</title><rect x="1188.0" y="245" width="1.2" height="15.0" fill="rgb(227,103,24)" rx="2" ry="2" />
<text  x="1191.00" y="255.5" ></text>
</g>
<g >
<title>scheduler_tick (12,226,376 samples, 0.03%)</title><rect x="1155.7" y="181" width="0.4" height="15.0" fill="rgb(246,190,45)" rx="2" ry="2" />
<text  x="1158.69" y="191.5" ></text>
</g>
<g >
<title>task_work_run (24,437,859 samples, 0.07%)</title><rect x="1154.1" y="181" width="0.8" height="15.0" fill="rgb(209,22,5)" rx="2" ry="2" />
<text  x="1157.11" y="191.5" ></text>
</g>
<g >
<title>__sysvec_apic_timer_interrupt (37,300,488 samples, 0.10%)</title><rect x="1186.4" y="309" width="1.2" height="15.0" fill="rgb(242,173,41)" rx="2" ry="2" />
<text  x="1189.42" y="319.5" ></text>
</g>
<g >
<title>hrtimer_interrupt (12,226,376 samples, 0.03%)</title><rect x="1155.7" y="261" width="0.4" height="15.0" fill="rgb(228,109,26)" rx="2" ry="2" />
<text  x="1158.69" y="271.5" ></text>
</g>
<g >
<title>exit_to_user_mode_loop (48,892,925 samples, 0.13%)</title><rect x="1187.6" y="277" width="1.6" height="15.0" fill="rgb(224,90,21)" rx="2" ry="2" />
<text  x="1190.61" y="287.5" ></text>
</g>
<g >
<title>update_cfs_group (12,223,028 samples, 0.03%)</title><rect x="1154.9" y="117" width="0.4" height="15.0" fill="rgb(242,174,41)" rx="2" ry="2" />
<text  x="1157.89" y="127.5" ></text>
</g>
<g >
<title>sysvec_apic_timer_interrupt (12,223,343 samples, 0.03%)</title><rect x="1131.2" y="261" width="0.3" height="15.0" fill="rgb(220,69,16)" rx="2" ry="2" />
<text  x="1134.15" y="271.5" ></text>
</g>
<g >
<title>hrtimer_interrupt (37,300,488 samples, 0.10%)</title><rect x="1186.4" y="293" width="1.2" height="15.0" fill="rgb(228,109,26)" rx="2" ry="2" />
<text  x="1189.42" y="303.5" ></text>
</g>
<g >
<title>irqentry_exit_to_user_mode (36,661,875 samples, 0.10%)</title><rect x="1153.7" y="213" width="1.2" height="15.0" fill="rgb(254,229,54)" rx="2" ry="2" />
<text  x="1156.72" y="223.5" ></text>
</g>
<g >
<title>asm_sysvec_apic_timer_interrupt (12,226,343 samples, 0.03%)</title><rect x="1098.1" y="261" width="0.3" height="15.0" fill="rgb(232,127,30)" rx="2" ry="2" />
<text  x="1101.05" y="271.5" ></text>
</g>
<g >
<title>change_prot_numa (24,437,859 samples, 0.07%)</title><rect x="1154.1" y="149" width="0.8" height="15.0" fill="rgb(246,190,45)" rx="2" ry="2" />
<text  x="1157.11" y="159.5" ></text>
</g>
<g >
<title>[libdoca_comch.so.3.1.0105] (171,140,474 samples, 0.46%)</title><rect x="1092.6" y="261" width="5.5" height="15.0" fill="rgb(227,102,24)" rx="2" ry="2" />
<text  x="1095.61" y="271.5" ></text>
</g>
<g >
<title>sysvec_apic_timer_interrupt (12,226,343 samples, 0.03%)</title><rect x="1098.1" y="245" width="0.3" height="15.0" fill="rgb(220,69,16)" rx="2" ry="2" />
<text  x="1101.05" y="255.5" ></text>
</g>
<g >
<title>trigger_load_balance (12,226,376 samples, 0.03%)</title><rect x="1155.7" y="165" width="0.4" height="15.0" fill="rgb(228,108,26)" rx="2" ry="2" />
<text  x="1158.69" y="175.5" ></text>
</g>
<g >
<title>change_protection_range (24,437,859 samples, 0.07%)</title><rect x="1154.1" y="117" width="0.8" height="15.0" fill="rgb(254,228,54)" rx="2" ry="2" />
<text  x="1157.11" y="127.5" ></text>
</g>
<g >
<title>__perf_event_task_sched_in (12,224,016 samples, 0.03%)</title><rect x="1153.7" y="133" width="0.4" height="15.0" fill="rgb(231,121,29)" rx="2" ry="2" />
<text  x="1156.72" y="143.5" ></text>
</g>
<g >
<title>schedule (12,224,016 samples, 0.03%)</title><rect x="1153.7" y="181" width="0.4" height="15.0" fill="rgb(254,229,54)" rx="2" ry="2" />
<text  x="1156.72" y="191.5" ></text>
</g>
<g >
<title>irqentry_exit_to_user_mode (12,226,133 samples, 0.03%)</title><rect x="1156.9" y="277" width="0.3" height="15.0" fill="rgb(254,229,54)" rx="2" ry="2" />
<text  x="1159.86" y="287.5" ></text>
</g>
<g >
<title>intel_pmu_enable_all (140,262,536 samples, 0.38%)</title><rect x="531.6" y="133" width="4.5" height="15.0" fill="rgb(205,4,1)" rx="2" ry="2" />
<text  x="534.62" y="143.5" ></text>
</g>
<g >
<title>irqentry_exit_to_user_mode (12,223,343 samples, 0.03%)</title><rect x="1131.2" y="229" width="0.3" height="15.0" fill="rgb(254,229,54)" rx="2" ry="2" />
<text  x="1134.15" y="239.5" ></text>
</g>
<g >
<title>nohz_balancer_kick (12,222,558 samples, 0.03%)</title><rect x="1186.8" y="181" width="0.4" height="15.0" fill="rgb(225,93,22)" rx="2" ry="2" />
<text  x="1189.81" y="191.5" ></text>
</g>
<g >
<title>hrtimer_interrupt (12,223,422 samples, 0.03%)</title><rect x="1156.5" y="277" width="0.4" height="15.0" fill="rgb(228,109,26)" rx="2" ry="2" />
<text  x="1159.47" y="287.5" ></text>
</g>
<g >
<title>reweight_entity (12,223,028 samples, 0.03%)</title><rect x="1154.9" y="101" width="0.4" height="15.0" fill="rgb(253,222,53)" rx="2" ry="2" />
<text  x="1157.89" y="111.5" ></text>
</g>
<g >
<title>perf_event_sched_in (12,226,343 samples, 0.03%)</title><rect x="1098.1" y="117" width="0.3" height="15.0" fill="rgb(232,126,30)" rx="2" ry="2" />
<text  x="1101.05" y="127.5" ></text>
</g>
<g >
<title>[libdoca_comch.so.3.1.0105] (2,372,615,208 samples, 6.40%)</title><rect x="1055.6" y="277" width="75.6" height="15.0" fill="rgb(227,102,24)" rx="2" ry="2" />
<text  x="1058.65" y="287.5" >[libdoca..</text>
</g>
<g >
<title>exit_to_user_mode_loop (36,661,875 samples, 0.10%)</title><rect x="1153.7" y="197" width="1.2" height="15.0" fill="rgb(224,90,21)" rx="2" ry="2" />
<text  x="1156.72" y="207.5" ></text>
</g>
<g >
<title>tick_sched_handle (12,222,558 samples, 0.03%)</title><rect x="1186.8" y="245" width="0.4" height="15.0" fill="rgb(219,68,16)" rx="2" ry="2" />
<text  x="1189.81" y="255.5" ></text>
</g>
<g >
<title>priv_doca_cq_datapath_objects_get (916,840,447 samples, 2.47%)</title><rect x="1157.2" y="325" width="29.2" height="15.0" fill="rgb(239,160,38)" rx="2" ry="2" />
<text  x="1160.25" y="335.5" >pr..</text>
</g>
<g >
<title>_raw_spin_lock (12,226,133 samples, 0.03%)</title><rect x="1156.9" y="181" width="0.3" height="15.0" fill="rgb(239,160,38)" rx="2" ry="2" />
<text  x="1159.86" y="191.5" ></text>
</g>
<g >
<title>event_sched_in (12,226,343 samples, 0.03%)</title><rect x="1098.1" y="53" width="0.3" height="15.0" fill="rgb(217,57,13)" rx="2" ry="2" />
<text  x="1101.05" y="63.5" ></text>
</g>
<g >
<title>priv_doca_cq_poll_one (380,338,963 samples, 1.03%)</title><rect x="158.2" y="389" width="12.1" height="15.0" fill="rgb(243,177,42)" rx="2" ry="2" />
<text  x="161.22" y="399.5" ></text>
</g>
<g >
<title>[libdoca_comch.so.3.1.0105] (3,243,746,599 samples, 8.75%)</title><rect x="199.8" y="389" width="103.3" height="15.0" fill="rgb(227,102,24)" rx="2" ry="2" />
<text  x="202.85" y="399.5" >[libdoca_com..</text>
</g>
<g >
<title>all (37,079,370,854 samples, 100%)</title><rect x="10.0" y="437" width="1180.0" height="15.0" fill="rgb(213,39,9)" rx="2" ry="2" />
<text  x="13.00" y="447.5" ></text>
</g>
<g >
<title>schedule (36,669,845 samples, 0.10%)</title><rect x="1188.0" y="261" width="1.2" height="15.0" fill="rgb(254,229,54)" rx="2" ry="2" />
<text  x="1191.00" y="271.5" ></text>
</g>
<g >
<title>tick_sched_timer (12,222,558 samples, 0.03%)</title><rect x="1186.8" y="261" width="0.4" height="15.0" fill="rgb(254,227,54)" rx="2" ry="2" />
<text  x="1189.81" y="271.5" ></text>
</g>
<g >
<title>irqentry_exit (12,226,343 samples, 0.03%)</title><rect x="1098.1" y="229" width="0.3" height="15.0" fill="rgb(219,66,15)" rx="2" ry="2" />
<text  x="1101.05" y="239.5" ></text>
</g>
<g >
<title>[[stack]] (927,739,783 samples, 2.50%)</title><rect x="170.3" y="405" width="29.5" height="15.0" fill="rgb(236,145,34)" rx="2" ry="2" />
<text  x="173.33" y="415.5" >[[..</text>
</g>
<g >
<title>__clone3 (20,957,976,060 samples, 56.52%)</title><rect x="522.3" y="405" width="666.9" height="15.0" fill="rgb(239,158,37)" rx="2" ry="2" />
<text  x="525.26" y="415.5" >__clone3</text>
</g>
<g >
<title>[libthrift.so.0.12.0] (293,385,360 samples, 0.79%)</title><rect x="584.5" y="357" width="9.4" height="15.0" fill="rgb(213,39,9)" rx="2" ry="2" />
<text  x="587.52" y="367.5" ></text>
</g>
<g >
<title>change_protection (24,437,859 samples, 0.07%)</title><rect x="1154.1" y="133" width="0.8" height="15.0" fill="rgb(209,22,5)" rx="2" ry="2" />
<text  x="1157.11" y="143.5" ></text>
</g>
<g >
<title>visit_groups_merge.constprop.0.isra.0 (12,224,016 samples, 0.03%)</title><rect x="1153.7" y="85" width="0.4" height="15.0" fill="rgb(220,70,16)" rx="2" ry="2" />
<text  x="1156.72" y="95.5" ></text>
</g>
<g >
<title>__hrtimer_run_queues (24,449,691 samples, 0.07%)</title><rect x="1186.4" y="277" width="0.8" height="15.0" fill="rgb(237,150,35)" rx="2" ry="2" />
<text  x="1189.42" y="287.5" ></text>
</g>
<g >
<title>perf_event_sched_in (12,224,016 samples, 0.03%)</title><rect x="1153.7" y="117" width="0.4" height="15.0" fill="rgb(232,126,30)" rx="2" ry="2" />
<text  x="1156.72" y="127.5" ></text>
</g>
<g >
<title>native_apic_msr_eoi_write (12,222,932 samples, 0.03%)</title><rect x="1156.1" y="277" width="0.4" height="15.0" fill="rgb(244,183,43)" rx="2" ry="2" />
<text  x="1159.08" y="287.5" ></text>
</g>
<g >
<title>__perf_event_task_sched_in (140,262,536 samples, 0.38%)</title><rect x="531.6" y="165" width="4.5" height="15.0" fill="rgb(231,121,29)" rx="2" ry="2" />
<text  x="534.62" y="175.5" ></text>
</g>
<g >
<title>hrtimer_start_range_ns (140,262,536 samples, 0.38%)</title><rect x="527.2" y="213" width="4.4" height="15.0" fill="rgb(244,179,42)" rx="2" ry="2" />
<text  x="530.16" y="223.5" ></text>
</g>
<g >
<title>flush_timer_fn (574,645,269 samples, 1.55%)</title><rect x="522.3" y="373" width="18.3" height="15.0" fill="rgb(218,64,15)" rx="2" ry="2" />
<text  x="525.26" y="383.5" ></text>
</g>
<g >
<title>change_pte_range (24,437,859 samples, 0.07%)</title><rect x="1154.1" y="69" width="0.8" height="15.0" fill="rgb(253,221,52)" rx="2" ry="2" />
<text  x="1157.11" y="79.5" ></text>
</g>
<g >
<title>__sysvec_apic_timer_interrupt (12,223,422 samples, 0.03%)</title><rect x="1156.5" y="293" width="0.4" height="15.0" fill="rgb(242,173,41)" rx="2" ry="2" />
<text  x="1159.47" y="303.5" ></text>
</g>
<g >
<title>irqentry_exit (48,892,925 samples, 0.13%)</title><rect x="1187.6" y="309" width="1.6" height="15.0" fill="rgb(219,66,15)" rx="2" ry="2" />
<text  x="1190.61" y="319.5" ></text>
</g>
<g >
<title>__perf_event_task_sched_out (12,226,133 samples, 0.03%)</title><rect x="1156.9" y="197" width="0.3" height="15.0" fill="rgb(248,198,47)" rx="2" ry="2" />
<text  x="1159.86" y="207.5" ></text>
</g>
<g >
<title>perf_swevent_add (12,226,343 samples, 0.03%)</title><rect x="1098.1" y="37" width="0.3" height="15.0" fill="rgb(207,11,2)" rx="2" ry="2" />
<text  x="1101.05" y="47.5" ></text>
</g>
<g >
<title>[libdoca_comch.so.3.1.0105] (4,021,888,747 samples, 10.85%)</title><rect x="10.0" y="389" width="128.0" height="15.0" fill="rgb(227,102,24)" rx="2" ry="2" />
<text  x="13.00" y="399.5" >[libdoca_comch.s..</text>
</g>
<g >
<title>enqueue_task (24,444,944 samples, 0.07%)</title><rect x="1154.9" y="149" width="0.8" height="15.0" fill="rgb(230,116,27)" rx="2" ry="2" />
<text  x="1157.89" y="159.5" ></text>
</g>
<g >
<title>__schedule (12,226,343 samples, 0.03%)</title><rect x="1098.1" y="165" width="0.3" height="15.0" fill="rgb(227,103,24)" rx="2" ry="2" />
<text  x="1101.05" y="175.5" ></text>
</g>
<g >
<title>[unknown] (4,051,116,637 samples, 10.93%)</title><rect x="393.3" y="405" width="129.0" height="15.0" fill="rgb(210,24,5)" rx="2" ry="2" />
<text  x="396.34" y="415.5" >[unknown]</text>
</g>
<g >
<title>irqentry_exit (36,661,875 samples, 0.10%)</title><rect x="1153.7" y="229" width="1.2" height="15.0" fill="rgb(219,66,15)" rx="2" ry="2" />
<text  x="1156.72" y="239.5" ></text>
</g>
<g >
<title>try_to_wake_up (12,227,133 samples, 0.03%)</title><rect x="1186.4" y="229" width="0.4" height="15.0" fill="rgb(220,70,16)" rx="2" ry="2" />
<text  x="1189.42" y="239.5" ></text>
</g>
<g >
<title>schedule (12,226,343 samples, 0.03%)</title><rect x="1098.1" y="181" width="0.3" height="15.0" fill="rgb(254,229,54)" rx="2" ry="2" />
<text  x="1101.05" y="191.5" ></text>
</g>
<g >
<title>___pthread_mutex_lock (140,262,536 samples, 0.38%)</title><rect x="536.1" y="357" width="4.5" height="15.0" fill="rgb(206,7,1)" rx="2" ry="2" />
<text  x="539.09" y="367.5" ></text>
</g>
<g >
<title>asm_sysvec_apic_timer_interrupt (25,296,839 samples, 0.07%)</title><rect x="1154.9" y="293" width="0.8" height="15.0" fill="rgb(232,127,30)" rx="2" ry="2" />
<text  x="1157.89" y="303.5" ></text>
</g>
<g >
<title>hrtimer_interrupt (24,444,944 samples, 0.07%)</title><rect x="1154.9" y="245" width="0.8" height="15.0" fill="rgb(228,109,26)" rx="2" ry="2" />
<text  x="1157.89" y="255.5" ></text>
</g>
<g >
<title>trigger_load_balance (12,222,558 samples, 0.03%)</title><rect x="1186.8" y="197" width="0.4" height="15.0" fill="rgb(228,108,26)" rx="2" ry="2" />
<text  x="1189.81" y="207.5" ></text>
</g>
<g >
<title>__hrtimer_run_queues (12,226,376 samples, 0.03%)</title><rect x="1155.7" y="245" width="0.4" height="15.0" fill="rgb(237,150,35)" rx="2" ry="2" />
<text  x="1158.69" y="255.5" ></text>
</g>
<g >
<title>sysvec_apic_timer_interrupt (25,296,839 samples, 0.07%)</title><rect x="1154.9" y="277" width="0.8" height="15.0" fill="rgb(220,69,16)" rx="2" ry="2" />
<text  x="1157.89" y="287.5" ></text>
</g>
<g >
<title>ttwu_do_activate (24,444,944 samples, 0.07%)</title><rect x="1154.9" y="165" width="0.8" height="15.0" fill="rgb(215,48,11)" rx="2" ry="2" />
<text  x="1157.89" y="175.5" ></text>
</g>
<g >
<title>prepare_task_switch (12,226,133 samples, 0.03%)</title><rect x="1156.9" y="213" width="0.3" height="15.0" fill="rgb(224,88,21)" rx="2" ry="2" />
<text  x="1159.86" y="223.5" ></text>
</g>
<g >
<title>__schedule (140,278,631 samples, 0.38%)</title><rect x="531.6" y="197" width="4.5" height="15.0" fill="rgb(227,103,24)" rx="2" ry="2" />
<text  x="534.62" y="207.5" ></text>
</g>
<g >
<title>__sysvec_apic_timer_interrupt (12,226,376 samples, 0.03%)</title><rect x="1155.7" y="277" width="0.4" height="15.0" fill="rgb(242,173,41)" rx="2" ry="2" />
<text  x="1158.69" y="287.5" ></text>
</g>
<g >
<title>ctx_sched_in (12,226,343 samples, 0.03%)</title><rect x="1098.1" y="101" width="0.3" height="15.0" fill="rgb(230,117,28)" rx="2" ry="2" />
<text  x="1101.05" y="111.5" ></text>
</g>
<g >
<title>sched_clock (12,224,634 samples, 0.03%)</title><rect x="1188.8" y="213" width="0.4" height="15.0" fill="rgb(212,33,7)" rx="2" ry="2" />
<text  x="1191.78" y="223.5" ></text>
</g>
<g >
<title>doca_pe_progress (18,706,390,933 samples, 50.45%)</title><rect x="593.9" y="357" width="595.3" height="15.0" fill="rgb(214,41,9)" rx="2" ry="2" />
<text  x="596.86" y="367.5" >doca_pe_progress</text>
</g>
<g >
<title>ttwu_do_activate (12,227,133 samples, 0.03%)</title><rect x="1186.4" y="213" width="0.4" height="15.0" fill="rgb(215,48,11)" rx="2" ry="2" />
<text  x="1189.42" y="223.5" ></text>
</g>
<g >
<title>sysvec_apic_timer_interrupt (86,193,413 samples, 0.23%)</title><rect x="1186.4" y="325" width="2.8" height="15.0" fill="rgb(220,69,16)" rx="2" ry="2" />
<text  x="1189.42" y="335.5" ></text>
</g>
<g >
<title>[libdoca_comch.so.3.1.0105] (10,198,183,198 samples, 27.50%)</title><rect x="831.9" y="325" width="324.6" height="15.0" fill="rgb(227,102,24)" rx="2" ry="2" />
<text  x="834.93" y="335.5" >[libdoca_comch.so.3.1.0105]</text>
</g>
<g >
<title>wake_up_process (12,223,422 samples, 0.03%)</title><rect x="1156.5" y="245" width="0.4" height="15.0" fill="rgb(213,37,8)" rx="2" ry="2" />
<text  x="1159.47" y="255.5" ></text>
</g>
<g >
<title>update_cfs_group (12,227,133 samples, 0.03%)</title><rect x="1186.4" y="181" width="0.4" height="15.0" fill="rgb(242,174,41)" rx="2" ry="2" />
<text  x="1189.42" y="191.5" ></text>
</g>
<g >
<title>wake_up_process (24,444,944 samples, 0.07%)</title><rect x="1154.9" y="197" width="0.8" height="15.0" fill="rgb(213,37,8)" rx="2" ry="2" />
<text  x="1157.89" y="207.5" ></text>
</g>
<g >
<title>exit_to_user_mode_loop (12,226,343 samples, 0.03%)</title><rect x="1098.1" y="197" width="0.3" height="15.0" fill="rgb(224,90,21)" rx="2" ry="2" />
<text  x="1101.05" y="207.5" ></text>
</g>
<g >
<title>schedule (12,226,133 samples, 0.03%)</title><rect x="1156.9" y="245" width="0.3" height="15.0" fill="rgb(254,229,54)" rx="2" ry="2" />
<text  x="1159.86" y="255.5" ></text>
</g>
<g >
<title>irqentry_exit (12,226,133 samples, 0.03%)</title><rect x="1156.9" y="293" width="0.3" height="15.0" fill="rgb(219,66,15)" rx="2" ry="2" />
<text  x="1159.86" y="303.5" ></text>
</g>
<g >
<title>nohz_balancer_kick (12,226,376 samples, 0.03%)</title><rect x="1155.7" y="149" width="0.4" height="15.0" fill="rgb(225,93,22)" rx="2" ry="2" />
<text  x="1158.69" y="159.5" ></text>
</g>
<g >
<title>hrtimer_wakeup (12,227,133 samples, 0.03%)</title><rect x="1186.4" y="261" width="0.4" height="15.0" fill="rgb(252,219,52)" rx="2" ry="2" />
<text  x="1189.42" y="271.5" ></text>
</g>
<g >
<title>[anon] (4,576,266,592 samples, 12.34%)</title><rect x="199.8" y="405" width="145.7" height="15.0" fill="rgb(210,23,5)" rx="2" ry="2" />
<text  x="202.85" y="415.5" >[anon]</text>
</g>
<g >
<title>priv_doca_cq_datapath_objects_get (635,718,723 samples, 1.71%)</title><rect x="138.0" y="389" width="20.2" height="15.0" fill="rgb(239,160,38)" rx="2" ry="2" />
<text  x="140.99" y="399.5" ></text>
</g>
<g >
<title>[libdoca_comch.so.3.1.0105] (4,304,214,792 samples, 11.61%)</title><rect x="1017.9" y="293" width="137.0" height="15.0" fill="rgb(227,102,24)" rx="2" ry="2" />
<text  x="1020.91" y="303.5" >[libdoca_comch.so..</text>
</g>
<g >
<title>enqueue_task_fair (12,223,028 samples, 0.03%)</title><rect x="1154.9" y="133" width="0.4" height="15.0" fill="rgb(216,52,12)" rx="2" ry="2" />
<text  x="1157.89" y="143.5" ></text>
</g>
<g >
<title>psi_group_change (12,221,916 samples, 0.03%)</title><rect x="1155.3" y="117" width="0.4" height="15.0" fill="rgb(226,101,24)" rx="2" ry="2" />
<text  x="1158.27" y="127.5" ></text>
</g>
<g >
<title>asm_sysvec_apic_timer_interrupt (12,223,343 samples, 0.03%)</title><rect x="1131.2" y="277" width="0.3" height="15.0" fill="rgb(232,127,30)" rx="2" ry="2" />
<text  x="1134.15" y="287.5" ></text>
</g>
<g >
<title>lll_mutex_lock_optimized (140,262,536 samples, 0.38%)</title><rect x="536.1" y="341" width="4.5" height="15.0" fill="rgb(209,22,5)" rx="2" ry="2" />
<text  x="539.09" y="351.5" ></text>
</g>
<g >
<title>[libdoca_comch.so.3.1.0105] (2,855,119,655 samples, 7.70%)</title><rect x="393.3" y="389" width="90.9" height="15.0" fill="rgb(227,102,24)" rx="2" ry="2" />
<text  x="396.34" y="399.5" >[libdoca_c..</text>
</g>
<g >
<title>__hrtimer_start_range_ns (140,262,536 samples, 0.38%)</title><rect x="527.2" y="197" width="4.4" height="15.0" fill="rgb(216,53,12)" rx="2" ry="2" />
<text  x="530.16" y="207.5" ></text>
</g>
<g >
<title>perf_event_sched_in (12,220,441 samples, 0.03%)</title><rect x="1188.4" y="197" width="0.4" height="15.0" fill="rgb(232,126,30)" rx="2" ry="2" />
<text  x="1191.39" y="207.5" ></text>
</g>
<g >
<title>asm_sysvec_apic_timer_interrupt (36,661,875 samples, 0.10%)</title><rect x="1153.7" y="261" width="1.2" height="15.0" fill="rgb(232,127,30)" rx="2" ry="2" />
<text  x="1156.72" y="271.5" ></text>
</g>
<g >
<title>irqentry_exit_to_user_mode (48,892,925 samples, 0.13%)</title><rect x="1187.6" y="293" width="1.6" height="15.0" fill="rgb(254,229,54)" rx="2" ry="2" />
<text  x="1190.61" y="303.5" ></text>
</g>
<g >
<title>do_syscall_64 (434,382,733 samples, 1.17%)</title><rect x="522.3" y="309" width="13.8" height="15.0" fill="rgb(209,20,4)" rx="2" ry="2" />
<text  x="525.26" y="319.5" ></text>
</g>
<g >
<title>update_process_times (12,226,376 samples, 0.03%)</title><rect x="1155.7" y="197" width="0.4" height="15.0" fill="rgb(250,209,50)" rx="2" ry="2" />
<text  x="1158.69" y="207.5" ></text>
</g>
<g >
<title>__x64_sys_clock_nanosleep (434,382,733 samples, 1.17%)</title><rect x="522.3" y="277" width="13.8" height="15.0" fill="rgb(248,202,48)" rx="2" ry="2" />
<text  x="525.26" y="287.5" ></text>
</g>
<g >
<title>priv_doca_cq_poll_one (1,027,898,516 samples, 2.77%)</title><rect x="1098.4" y="261" width="32.8" height="15.0" fill="rgb(243,177,42)" rx="2" ry="2" />
<text  x="1101.44" y="271.5" >pr..</text>
</g>
<g >
<title>doca_pe_progress (1,332,519,993 samples, 3.59%)</title><rect x="303.1" y="389" width="42.4" height="15.0" fill="rgb(214,41,9)" rx="2" ry="2" />
<text  x="306.08" y="399.5" >doc..</text>
</g>
<g >
<title>do_nanosleep (282,641,028 samples, 0.76%)</title><rect x="527.1" y="229" width="9.0" height="15.0" fill="rgb(253,220,52)" rx="2" ry="2" />
<text  x="530.09" y="239.5" ></text>
</g>
<g >
<title>change_pmd_range.isra.0 (24,437,859 samples, 0.07%)</title><rect x="1154.1" y="85" width="0.8" height="15.0" fill="rgb(216,51,12)" rx="2" ry="2" />
<text  x="1157.11" y="95.5" ></text>
</g>
<g >
<title>finish_task_switch.isra.0 (12,226,343 samples, 0.03%)</title><rect x="1098.1" y="149" width="0.3" height="15.0" fill="rgb(246,189,45)" rx="2" ry="2" />
<text  x="1101.05" y="159.5" ></text>
</g>
<g >
<title>start_thread (20,957,976,060 samples, 56.52%)</title><rect x="522.3" y="389" width="666.9" height="15.0" fill="rgb(212,34,8)" rx="2" ry="2" />
<text  x="525.26" y="399.5" >start_thread</text>
</g>
<g >
<title>update_curr (12,223,028 samples, 0.03%)</title><rect x="1154.9" y="85" width="0.4" height="15.0" fill="rgb(227,105,25)" rx="2" ry="2" />
<text  x="1157.89" y="95.5" ></text>
</g>
<g >
<title>sysvec_apic_timer_interrupt (24,449,555 samples, 0.07%)</title><rect x="1156.5" y="309" width="0.7" height="15.0" fill="rgb(220,69,16)" rx="2" ry="2" />
<text  x="1159.47" y="319.5" ></text>
</g>
<g >
<title>[libdoca_comch.so.3.1.0105] (6,814,304,930 samples, 18.38%)</title><rect x="938.8" y="309" width="216.9" height="15.0" fill="rgb(227,102,24)" rx="2" ry="2" />
<text  x="941.83" y="319.5" >[libdoca_comch.so.3.1.0105]</text>
</g>
<g >
<title>read_tsc (12,850,797 samples, 0.03%)</title><rect x="1187.2" y="277" width="0.4" height="15.0" fill="rgb(206,7,1)" rx="2" ry="2" />
<text  x="1190.20" y="287.5" ></text>
</g>
<g >
<title>hrtimer_wakeup (24,444,944 samples, 0.07%)</title><rect x="1154.9" y="213" width="0.8" height="15.0" fill="rgb(252,219,52)" rx="2" ry="2" />
<text  x="1157.89" y="223.5" ></text>
</g>
</g>
</svg>
