<?xml version="1.0" standalone="no"?>
<!DOCTYPE svg PUBLIC "-//W3C//DTD SVG 1.1//EN" "http://www.w3.org/Graphics/SVG/1.1/DTD/svg11.dtd">
<svg version="1.1" width="1200" height="422" onload="init(evt)" viewBox="0 0 1200 422" xmlns="http://www.w3.org/2000/svg" xmlns:xlink="http://www.w3.org/1999/xlink">
<!-- Flame graph stack visualization. See https://github.com/brendangregg/FlameGraph for latest version, and http://www.brendangregg.com/flamegraphs.html for examples. -->
<!-- NOTES:  -->
<defs>
	<linearGradient id="background" y1="0" y2="1" x1="0" x2="0" >
		<stop stop-color="#eeeeee" offset="5%" />
		<stop stop-color="#eeeeb0" offset="95%" />
	</linearGradient>
</defs>
<style type="text/css">
	text { font-family:Verdana; font-size:12px; fill:rgb(0,0,0); }
	#search, #ignorecase { opacity:0.1; cursor:pointer; }
	#search:hover, #search.show, #ignorecase:hover, #ignorecase.show { opacity:1; }
	#subtitle { text-anchor:middle; font-color:rgb(160,160,160); }
	#title { text-anchor:middle; font-size:17px}
	#unzoom { cursor:pointer; }
	#frames > *:hover { stroke:black; stroke-width:0.5; cursor:pointer; }
	.hide { display:none; }
	.parent { opacity:0.5; }
</style>
<script type="text/ecmascript">
<![CDATA[
	"use strict";
	var details, searchbtn, unzoombtn, matchedtxt, svg, searching, currentSearchTerm, ignorecase, ignorecaseBtn;
	function init(evt) {
		details = document.getElementById("details").firstChild;
		searchbtn = document.getElementById("search");
		ignorecaseBtn = document.getElementById("ignorecase");
		unzoombtn = document.getElementById("unzoom");
		matchedtxt = document.getElementById("matched");
		svg = document.getElementsByTagName("svg")[0];
		searching = 0;
		currentSearchTerm = null;

		// use GET parameters to restore a flamegraphs state.
		var params = get_params();
		if (params.x && params.y)
			zoom(find_group(document.querySelector('[x="' + params.x + '"][y="' + params.y + '"]')));
                if (params.s) search(params.s);
	}

	// event listeners
	window.addEventListener("click", function(e) {
		var target = find_group(e.target);
		if (target) {
			if (target.nodeName == "a") {
				if (e.ctrlKey === false) return;
				e.preventDefault();
			}
			if (target.classList.contains("parent")) unzoom(true);
			zoom(target);
			if (!document.querySelector('.parent')) {
				// we have basically done a clearzoom so clear the url
				var params = get_params();
				if (params.x) delete params.x;
				if (params.y) delete params.y;
				history.replaceState(null, null, parse_params(params));
				unzoombtn.classList.add("hide");
				return;
			}

			// set parameters for zoom state
			var el = target.querySelector("rect");
			if (el && el.attributes && el.attributes.y && el.attributes._orig_x) {
				var params = get_params()
				params.x = el.attributes._orig_x.value;
				params.y = el.attributes.y.value;
				history.replaceState(null, null, parse_params(params));
			}
		}
		else if (e.target.id == "unzoom") clearzoom();
		else if (e.target.id == "search") search_prompt();
		else if (e.target.id == "ignorecase") toggle_ignorecase();
	}, false)

	// mouse-over for info
	// show
	window.addEventListener("mouseover", function(e) {
		var target = find_group(e.target);
		if (target) details.nodeValue = "Function: " + g_to_text(target);
	}, false)

	// clear
	window.addEventListener("mouseout", function(e) {
		var target = find_group(e.target);
		if (target) details.nodeValue = ' ';
	}, false)

	// ctrl-F for search
	// ctrl-I to toggle case-sensitive search
	window.addEventListener("keydown",function (e) {
		if (e.keyCode === 114 || (e.ctrlKey && e.keyCode === 70)) {
			e.preventDefault();
			search_prompt();
		}
		else if (e.ctrlKey && e.keyCode === 73) {
			e.preventDefault();
			toggle_ignorecase();
		}
	}, false)

	// functions
	function get_params() {
		var params = {};
		var paramsarr = window.location.search.substr(1).split('&');
		for (var i = 0; i < paramsarr.length; ++i) {
			var tmp = paramsarr[i].split("=");
			if (!tmp[0] || !tmp[1]) continue;
			params[tmp[0]]  = decodeURIComponent(tmp[1]);
		}
		return params;
	}
	function parse_params(params) {
		var uri = "?";
		for (var key in params) {
			uri += key + '=' + encodeURIComponent(params[key]) + '&';
		}
		if (uri.slice(-1) == "&")
			uri = uri.substring(0, uri.length - 1);
		if (uri == '?')
			uri = window.location.href.split('?')[0];
		return uri;
	}
	function find_child(node, selector) {
		var children = node.querySelectorAll(selector);
		if (children.length) return children[0];
	}
	function find_group(node) {
		var parent = node.parentElement;
		if (!parent) return;
		if (parent.id == "frames") return node;
		return find_group(parent);
	}
	function orig_save(e, attr, val) {
		if (e.attributes["_orig_" + attr] != undefined) return;
		if (e.attributes[attr] == undefined) return;
		if (val == undefined) val = e.attributes[attr].value;
		e.setAttribute("_orig_" + attr, val);
	}
	function orig_load(e, attr) {
		if (e.attributes["_orig_"+attr] == undefined) return;
		e.attributes[attr].value = e.attributes["_orig_" + attr].value;
		e.removeAttribute("_orig_"+attr);
	}
	function g_to_text(e) {
		var text = find_child(e, "title").firstChild.nodeValue;
		return (text)
	}
	function g_to_func(e) {
		var func = g_to_text(e);
		// if there's any manipulation we want to do to the function
		// name before it's searched, do it here before returning.
		return (func);
	}
	function update_text(e) {
		var r = find_child(e, "rect");
		var t = find_child(e, "text");
		var w = parseFloat(r.attributes.width.value) -3;
		var txt = find_child(e, "title").textContent.replace(/\([^(]*\)$/,"");
		t.attributes.x.value = parseFloat(r.attributes.x.value) + 3;

		// Smaller than this size won't fit anything
		if (w < 2 * 12 * 0.59) {
			t.textContent = "";
			return;
		}

		t.textContent = txt;
		var sl = t.getSubStringLength(0, txt.length);
		// check if only whitespace or if we can fit the entire string into width w
		if (/^ *$/.test(txt) || sl < w)
			return;

		// this isn't perfect, but gives a good starting point
		// and avoids calling getSubStringLength too often
		var start = Math.floor((w/sl) * txt.length);
		for (var x = start; x > 0; x = x-2) {
			if (t.getSubStringLength(0, x + 2) <= w) {
				t.textContent = txt.substring(0, x) + "..";
				return;
			}
		}
		t.textContent = "";
	}

	// zoom
	function zoom_reset(e) {
		if (e.attributes != undefined) {
			orig_load(e, "x");
			orig_load(e, "width");
		}
		if (e.childNodes == undefined) return;
		for (var i = 0, c = e.childNodes; i < c.length; i++) {
			zoom_reset(c[i]);
		}
	}
	function zoom_child(e, x, ratio) {
		if (e.attributes != undefined) {
			if (e.attributes.x != undefined) {
				orig_save(e, "x");
				e.attributes.x.value = (parseFloat(e.attributes.x.value) - x - 10) * ratio + 10;
				if (e.tagName == "text")
					e.attributes.x.value = find_child(e.parentNode, "rect[x]").attributes.x.value + 3;
			}
			if (e.attributes.width != undefined) {
				orig_save(e, "width");
				e.attributes.width.value = parseFloat(e.attributes.width.value) * ratio;
			}
		}

		if (e.childNodes == undefined) return;
		for (var i = 0, c = e.childNodes; i < c.length; i++) {
			zoom_child(c[i], x - 10, ratio);
		}
	}
	function zoom_parent(e) {
		if (e.attributes) {
			if (e.attributes.x != undefined) {
				orig_save(e, "x");
				e.attributes.x.value = 10;
			}
			if (e.attributes.width != undefined) {
				orig_save(e, "width");
				e.attributes.width.value = parseInt(svg.width.baseVal.value) - (10 * 2);
			}
		}
		if (e.childNodes == undefined) return;
		for (var i = 0, c = e.childNodes; i < c.length; i++) {
			zoom_parent(c[i]);
		}
	}
	function zoom(node) {
		var attr = find_child(node, "rect").attributes;
		var width = parseFloat(attr.width.value);
		var xmin = parseFloat(attr.x.value);
		var xmax = parseFloat(xmin + width);
		var ymin = parseFloat(attr.y.value);
		var ratio = (svg.width.baseVal.value - 2 * 10) / width;

		// XXX: Workaround for JavaScript float issues (fix me)
		var fudge = 0.0001;

		unzoombtn.classList.remove("hide");

		var el = document.getElementById("frames").children;
		for (var i = 0; i < el.length; i++) {
			var e = el[i];
			var a = find_child(e, "rect").attributes;
			var ex = parseFloat(a.x.value);
			var ew = parseFloat(a.width.value);
			var upstack;
			// Is it an ancestor
			if (0 == 0) {
				upstack = parseFloat(a.y.value) > ymin;
			} else {
				upstack = parseFloat(a.y.value) < ymin;
			}
			if (upstack) {
				// Direct ancestor
				if (ex <= xmin && (ex+ew+fudge) >= xmax) {
					e.classList.add("parent");
					zoom_parent(e);
					update_text(e);
				}
				// not in current path
				else
					e.classList.add("hide");
			}
			// Children maybe
			else {
				// no common path
				if (ex < xmin || ex + fudge >= xmax) {
					e.classList.add("hide");
				}
				else {
					zoom_child(e, xmin, ratio);
					update_text(e);
				}
			}
		}
		search();
	}
	function unzoom(dont_update_text) {
		unzoombtn.classList.add("hide");
		var el = document.getElementById("frames").children;
		for(var i = 0; i < el.length; i++) {
			el[i].classList.remove("parent");
			el[i].classList.remove("hide");
			zoom_reset(el[i]);
			if(!dont_update_text) update_text(el[i]);
		}
		search();
	}
	function clearzoom() {
		unzoom();

		// remove zoom state
		var params = get_params();
		if (params.x) delete params.x;
		if (params.y) delete params.y;
		history.replaceState(null, null, parse_params(params));
	}

	// search
	function toggle_ignorecase() {
		ignorecase = !ignorecase;
		if (ignorecase) {
			ignorecaseBtn.classList.add("show");
		} else {
			ignorecaseBtn.classList.remove("show");
		}
		reset_search();
		search();
	}
	function reset_search() {
		var el = document.querySelectorAll("#frames rect");
		for (var i = 0; i < el.length; i++) {
			orig_load(el[i], "fill")
		}
		var params = get_params();
		delete params.s;
		history.replaceState(null, null, parse_params(params));
	}
	function search_prompt() {
		if (!searching) {
			var term = prompt("Enter a search term (regexp " +
			    "allowed, eg: ^ext4_)"
			    + (ignorecase ? ", ignoring case" : "")
			    + "\nPress Ctrl-i to toggle case sensitivity", "");
			if (term != null) search(term);
		} else {
			reset_search();
			searching = 0;
			currentSearchTerm = null;
			searchbtn.classList.remove("show");
			searchbtn.firstChild.nodeValue = "Search"
			matchedtxt.classList.add("hide");
			matchedtxt.firstChild.nodeValue = ""
		}
	}
	function search(term) {
		if (term) currentSearchTerm = term;
		if (currentSearchTerm === null) return;

		var re = new RegExp(currentSearchTerm, ignorecase ? 'i' : '');
		var el = document.getElementById("frames").children;
		var matches = new Object();
		var maxwidth = 0;
		for (var i = 0; i < el.length; i++) {
			var e = el[i];
			var func = g_to_func(e);
			var rect = find_child(e, "rect");
			if (func == null || rect == null)
				continue;

			// Save max width. Only works as we have a root frame
			var w = parseFloat(rect.attributes.width.value);
			if (w > maxwidth)
				maxwidth = w;

			if (func.match(re)) {
				// highlight
				var x = parseFloat(rect.attributes.x.value);
				orig_save(rect, "fill");
				rect.attributes.fill.value = "rgb(230,0,230)";

				// remember matches
				if (matches[x] == undefined) {
					matches[x] = w;
				} else {
					if (w > matches[x]) {
						// overwrite with parent
						matches[x] = w;
					}
				}
				searching = 1;
			}
		}
		if (!searching)
			return;
		var params = get_params();
		params.s = currentSearchTerm;
		history.replaceState(null, null, parse_params(params));

		searchbtn.classList.add("show");
		searchbtn.firstChild.nodeValue = "Reset Search";

		// calculate percent matched, excluding vertical overlap
		var count = 0;
		var lastx = -1;
		var lastw = 0;
		var keys = Array();
		for (k in matches) {
			if (matches.hasOwnProperty(k))
				keys.push(k);
		}
		// sort the matched frames by their x location
		// ascending, then width descending
		keys.sort(function(a, b){
			return a - b;
		});
		// Step through frames saving only the biggest bottom-up frames
		// thanks to the sort order. This relies on the tree property
		// where children are always smaller than their parents.
		var fudge = 0.0001;	// JavaScript floating point
		for (var k in keys) {
			var x = parseFloat(keys[k]);
			var w = matches[keys[k]];
			if (x >= lastx + lastw - fudge) {
				count += w;
				lastx = x;
				lastw = w;
			}
		}
		// display matched percent
		matchedtxt.classList.remove("hide");
		var pct = 100 * count / maxwidth;
		if (pct != 100) pct = pct.toFixed(1)
		matchedtxt.firstChild.nodeValue = "Matched: " + pct + "%";
	}
]]>
</script>
<rect x="0.0" y="0" width="1200.0" height="422.0" fill="url(#background)"  />
<text id="title" x="600.00" y="24" >dpumesh_dpu @ 150000rps 256B</text>
<text id="details" x="10.00" y="405" > </text>
<text id="unzoom" x="10.00" y="24" class="hide">Reset Zoom</text>
<text id="search" x="1090.00" y="24" >Search</text>
<text id="ignorecase" x="1174.00" y="24" >ic</text>
<text id="matched" x="1090.00" y="405" > </text>
<g id="frames">
<g >
<title>clock_gettime@@GLIBC_2.17 (1,308,277,344 samples, 6.12%)</title><rect x="76.1" y="261" width="72.2" height="15.0" fill="rgb(250,209,50)" rx="2" ry="2" />
<text  x="79.11" y="271.5" >clock_ge..</text>
</g>
<g >
<title>[libdoca_comch.so.3.1.0105] (107,242,192 samples, 0.50%)</title><rect x="69.0" y="261" width="5.9" height="15.0" fill="rgb(227,102,24)" rx="2" ry="2" />
<text  x="72.01" y="271.5" ></text>
</g>
<g >
<title>el0t_64_sync (10,645,541,824 samples, 49.81%)</title><rect x="465.2" y="213" width="587.7" height="15.0" fill="rgb(217,56,13)" rx="2" ry="2" />
<text  x="468.16" y="223.5" >el0t_64_sync</text>
</g>
<g >
<title>priv_doca_cq_datapath_objects_get (85,776,946 samples, 0.40%)</title><rect x="1056.5" y="245" width="4.7" height="15.0" fill="rgb(239,160,38)" rx="2" ry="2" />
<text  x="1059.45" y="255.5" ></text>
</g>
<g >
<title>el0_svc_common.constprop.0 (18,400,869 samples, 0.09%)</title><rect x="1189.0" y="181" width="1.0" height="15.0" fill="rgb(224,89,21)" rx="2" ry="2" />
<text  x="1191.98" y="191.5" ></text>
</g>
<g >
<title>comp_queue_peek (64,334,157 samples, 0.30%)</title><rect x="1149.4" y="245" width="3.6" height="15.0" fill="rgb(235,141,33)" rx="2" ry="2" />
<text  x="1152.44" y="255.5" ></text>
</g>
<g >
<title>doca_task_submit (21,451,335 samples, 0.10%)</title><rect x="1175.5" y="181" width="1.2" height="15.0" fill="rgb(233,130,31)" rx="2" ry="2" />
<text  x="1178.49" y="191.5" ></text>
</g>
<g >
<title>finish_task_switch.isra.0 (8,757,385 samples, 0.04%)</title><rect x="1189.5" y="53" width="0.5" height="15.0" fill="rgb(246,189,45)" rx="2" ry="2" />
<text  x="1192.51" y="63.5" ></text>
</g>
<g >
<title>doca_pe_progress (300,245,714 samples, 1.40%)</title><rect x="1153.0" y="245" width="16.6" height="15.0" fill="rgb(214,41,9)" rx="2" ry="2" />
<text  x="1155.99" y="255.5" ></text>
</g>
<g >
<title>doca_comch_consumer_task_post_recv_get_imm_data (10,724,440 samples, 0.05%)</title><rect x="344.9" y="229" width="0.6" height="15.0" fill="rgb(208,14,3)" rx="2" ry="2" />
<text  x="347.93" y="239.5" ></text>
</g>
<g >
<title>doca_pe_progress@plt (10,724,072 samples, 0.05%)</title><rect x="11.8" y="277" width="0.6" height="15.0" fill="rgb(230,115,27)" rx="2" ry="2" />
<text  x="14.78" y="287.5" ></text>
</g>
<g >
<title>el0_svc (10,645,541,824 samples, 49.81%)</title><rect x="465.2" y="181" width="587.7" height="15.0" fill="rgb(244,183,43)" rx="2" ry="2" />
<text  x="468.16" y="191.5" >el0_svc</text>
</g>
<g >
<title>find_pod_by_id (21,449,209 samples, 0.10%)</title><rect x="1169.6" y="229" width="1.2" height="15.0" fill="rgb(253,221,52)" rx="2" ry="2" />
<text  x="1172.57" y="239.5" ></text>
</g>
<g >
<title>do_el0_svc (150,119,741 samples, 0.70%)</title><rect x="1161.3" y="149" width="8.3" height="15.0" fill="rgb(218,60,14)" rx="2" ry="2" />
<text  x="1164.28" y="159.5" ></text>
</g>
<g >
<title>do_epoll_pwait.part.0 (21,449,966 samples, 0.10%)</title><rect x="960.5" y="117" width="1.2" height="15.0" fill="rgb(248,197,47)" rx="2" ry="2" />
<text  x="963.54" y="127.5" ></text>
</g>
<g >
<title>msg_dev_sync_cb (19,201,259 samples, 0.09%)</title><rect x="1187.9" y="309" width="1.1" height="15.0" fill="rgb(252,216,51)" rx="2" ry="2" />
<text  x="1190.92" y="319.5" ></text>
</g>
<g >
<title>__libc_start_call_main (21,335,338,292 samples, 99.82%)</title><rect x="10.0" y="309" width="1177.9" height="15.0" fill="rgb(210,26,6)" rx="2" ry="2" />
<text  x="13.00" y="319.5" >__libc_start_call_main</text>
</g>
<g >
<title>el0t_64_sync (18,434,231 samples, 0.09%)</title><rect x="1189.0" y="245" width="1.0" height="15.0" fill="rgb(217,56,13)" rx="2" ry="2" />
<text  x="1191.98" y="255.5" ></text>
</g>
<g >
<title>[libdoca_comch.so.3.1.0105] (10,724,282 samples, 0.05%)</title><rect x="1156.5" y="165" width="0.6" height="15.0" fill="rgb(227,102,24)" rx="2" ry="2" />
<text  x="1159.54" y="175.5" ></text>
</g>
<g >
<title>el0t_64_sync_handler (18,434,231 samples, 0.09%)</title><rect x="1189.0" y="229" width="1.0" height="15.0" fill="rgb(211,32,7)" rx="2" ry="2" />
<text  x="1191.98" y="239.5" ></text>
</g>
<g >
<title>[libdoca_comch.so.3.1.0105] (1,544,160,080 samples, 7.22%)</title><rect x="251.4" y="229" width="85.2" height="15.0" fill="rgb(227,102,24)" rx="2" ry="2" />
<text  x="254.39" y="239.5" >[libdoca_c..</text>
</g>
<g >
<title>pthread_mutex_lock@@GLIBC_2.17 (117,959,997 samples, 0.55%)</title><rect x="1131.7" y="245" width="6.5" height="15.0" fill="rgb(234,136,32)" rx="2" ry="2" />
<text  x="1134.68" y="255.5" ></text>
</g>
<g >
<title>start_thread (37,677,984 samples, 0.18%)</title><rect x="1187.9" y="325" width="2.1" height="15.0" fill="rgb(212,34,8)" rx="2" ry="2" />
<text  x="1190.92" y="335.5" ></text>
</g>
<g >
<title>find_pod_by_id (117,957,479 samples, 0.55%)</title><rect x="1177.3" y="229" width="6.5" height="15.0" fill="rgb(253,221,52)" rx="2" ry="2" />
<text  x="1180.26" y="239.5" ></text>
</g>
<g >
<title>priv_doca_cq_poll_one@plt (10,723,498 samples, 0.05%)</title><rect x="310.0" y="181" width="0.6" height="15.0" fill="rgb(209,21,5)" rx="2" ry="2" />
<text  x="313.00" y="191.5" ></text>
</g>
<g >
<title>do_epoll_pwait.part.0 (1,919,527,945 samples, 8.98%)</title><rect x="846.3" y="101" width="106.0" height="15.0" fill="rgb(248,197,47)" rx="2" ry="2" />
<text  x="849.28" y="111.5" >do_epoll_pwa..</text>
</g>
<g >
<title>priv_doca_cq_poll_one (461,080,025 samples, 2.16%)</title><rect x="310.6" y="213" width="25.5" height="15.0" fill="rgb(243,177,42)" rx="2" ry="2" />
<text  x="313.60" y="223.5" >p..</text>
</g>
<g >
<title>process_forward_entry (139,407,252 samples, 0.65%)</title><rect x="1169.6" y="245" width="7.7" height="15.0" fill="rgb(210,26,6)" rx="2" ry="2" />
<text  x="1172.57" y="255.5" ></text>
</g>
<g >
<title>__arm64_sys_clock_nanosleep (19,174,856 samples, 0.09%)</title><rect x="1187.9" y="149" width="1.1" height="15.0" fill="rgb(206,9,2)" rx="2" ry="2" />
<text  x="1190.92" y="159.5" ></text>
</g>
<g >
<title>__kernel_clock_gettime (21,447,735 samples, 0.10%)</title><rect x="74.9" y="261" width="1.2" height="15.0" fill="rgb(231,122,29)" rx="2" ry="2" />
<text  x="77.93" y="271.5" ></text>
</g>
<g >
<title>el0_svc (19,201,259 samples, 0.09%)</title><rect x="1187.9" y="213" width="1.1" height="15.0" fill="rgb(244,183,43)" rx="2" ry="2" />
<text  x="1190.92" y="223.5" ></text>
</g>
<g >
<title>find_pod_by_id (21,449,285 samples, 0.10%)</title><rect x="343.7" y="213" width="1.2" height="15.0" fill="rgb(253,221,52)" rx="2" ry="2" />
<text  x="346.75" y="223.5" ></text>
</g>
<g >
<title>send_or_defer_tx_ack (96,508,906 samples, 0.45%)</title><rect x="1171.3" y="229" width="5.4" height="15.0" fill="rgb(225,93,22)" rx="2" ry="2" />
<text  x="1174.34" y="239.5" ></text>
</g>
<g >
<title>__nanosleep (19,201,259 samples, 0.09%)</title><rect x="1187.9" y="277" width="1.1" height="15.0" fill="rgb(252,217,52)" rx="2" ry="2" />
<text  x="1190.92" y="287.5" ></text>
</g>
<g >
<title>set_user_sigmask (10,724,935 samples, 0.05%)</title><rect x="1051.7" y="117" width="0.6" height="15.0" fill="rgb(252,218,52)" rx="2" ry="2" />
<text  x="1054.72" y="127.5" ></text>
</g>
<g >
<title>__GI___pthread_enable_asynccancel (10,723,920 samples, 0.05%)</title><rect x="341.4" y="229" width="0.6" height="15.0" fill="rgb(240,165,39)" rx="2" ry="2" />
<text  x="344.38" y="239.5" ></text>
</g>
<g >
<title>do_el0_svc (10,645,541,766 samples, 49.81%)</title><rect x="465.2" y="165" width="587.7" height="15.0" fill="rgb(218,60,14)" rx="2" ry="2" />
<text  x="468.16" y="175.5" >do_el0_svc</text>
</g>
<g >
<title>hrtimer_init_sleeper (19,124,857 samples, 0.09%)</title><rect x="1187.9" y="101" width="1.1" height="15.0" fill="rgb(232,128,30)" rx="2" ry="2" />
<text  x="1190.92" y="111.5" ></text>
</g>
<g >
<title>invoke_syscall (10,724,304 samples, 0.05%)</title><rect x="1052.3" y="149" width="0.6" height="15.0" fill="rgb(209,18,4)" rx="2" ry="2" />
<text  x="1055.31" y="159.5" ></text>
</g>
<g >
<title>do_epoll_wait (21,447,869 samples, 0.10%)</title><rect x="952.3" y="101" width="1.1" height="15.0" fill="rgb(211,31,7)" rx="2" ry="2" />
<text  x="955.26" y="111.5" ></text>
</g>
<g >
<title>doca_pool_try_acquire (10,724,633 samples, 0.05%)</title><rect x="1184.4" y="181" width="0.6" height="15.0" fill="rgb(251,214,51)" rx="2" ry="2" />
<text  x="1187.37" y="191.5" ></text>
</g>
<g >
<title>el0t_64_sync_handler (10,645,541,824 samples, 49.81%)</title><rect x="465.2" y="197" width="587.7" height="15.0" fill="rgb(211,32,7)" rx="2" ry="2" />
<text  x="468.16" y="207.5" >el0t_64_sync_handler</text>
</g>
<g >
<title>__GI___pthread_enable_asynccancel (32,173,093 samples, 0.15%)</title><rect x="463.4" y="213" width="1.8" height="15.0" fill="rgb(240,165,39)" rx="2" ry="2" />
<text  x="466.39" y="223.5" ></text>
</g>
<g >
<title>doca_task_submit (10,724,704 samples, 0.05%)</title><rect x="1176.7" y="213" width="0.6" height="15.0" fill="rgb(233,130,31)" rx="2" ry="2" />
<text  x="1179.67" y="223.5" ></text>
</g>
<g >
<title>fput (407,531,441 samples, 1.91%)</title><rect x="923.8" y="69" width="22.5" height="15.0" fill="rgb(225,96,23)" rx="2" ry="2" />
<text  x="926.84" y="79.5" >f..</text>
</g>
<g >
<title>[libdoca_comch.so.3.1.0105] (16,126,706,083 samples, 75.45%)</title><rect x="164.3" y="245" width="890.4" height="15.0" fill="rgb(227,102,24)" rx="2" ry="2" />
<text  x="167.33" y="255.5" >[libdoca_comch.so.3.1.0105]</text>
</g>
<g >
<title>tracer_cb (18,455,774 samples, 0.09%)</title><rect x="1189.0" y="309" width="1.0" height="15.0" fill="rgb(236,144,34)" rx="2" ry="2" />
<text  x="1191.98" y="319.5" ></text>
</g>
<g >
<title>rcu_read_unlock_strict (10,724,963 samples, 0.05%)</title><rect x="912.6" y="37" width="0.6" height="15.0" fill="rgb(221,76,18)" rx="2" ry="2" />
<text  x="915.59" y="47.5" ></text>
</g>
<g >
<title>fput_many (10,725,194 samples, 0.05%)</title><rect x="1167.2" y="37" width="0.6" height="15.0" fill="rgb(239,157,37)" rx="2" ry="2" />
<text  x="1170.20" y="47.5" ></text>
</g>
<g >
<title>dmesh_doca_dpa_msgq_recv_cb (53,624,055 samples, 0.25%)</title><rect x="342.0" y="229" width="2.9" height="15.0" fill="rgb(246,192,46)" rx="2" ry="2" />
<text  x="344.97" y="239.5" ></text>
</g>
<g >
<title>all (21,373,016,276 samples, 100%)</title><rect x="10.0" y="373" width="1180.0" height="15.0" fill="rgb(213,39,9)" rx="2" ry="2" />
<text  x="13.00" y="383.5" ></text>
</g>
<g >
<title>fput (10,725,194 samples, 0.05%)</title><rect x="1167.2" y="53" width="0.6" height="15.0" fill="rgb(225,96,23)" rx="2" ry="2" />
<text  x="1170.20" y="63.5" ></text>
</g>
<g >
<title>do_epoll_wait (10,725,194 samples, 0.05%)</title><rect x="1167.2" y="69" width="0.6" height="15.0" fill="rgb(211,31,7)" rx="2" ry="2" />
<text  x="1170.20" y="79.5" ></text>
</g>
<g >
<title>el0_svc_common.constprop.0 (10,634,817,462 samples, 49.76%)</title><rect x="465.2" y="149" width="587.1" height="15.0" fill="rgb(224,89,21)" rx="2" ry="2" />
<text  x="468.16" y="159.5" >el0_svc_common.constprop.0</text>
</g>
<g >
<title>memset (10,180,399 samples, 0.05%)</title><rect x="1188.4" y="85" width="0.6" height="15.0" fill="rgb(208,14,3)" rx="2" ry="2" />
<text  x="1191.42" y="95.5" ></text>
</g>
<g >
<title>process_completion_queue (890,051,013 samples, 4.16%)</title><rect x="1138.2" y="261" width="49.1" height="15.0" fill="rgb(245,185,44)" rx="2" ry="2" />
<text  x="1141.19" y="271.5" >proc..</text>
</g>
<g >
<title>[libdoca_comch.so.3.1.0105] (21,448,463 samples, 0.10%)</title><rect x="1155.9" y="181" width="1.2" height="15.0" fill="rgb(227,102,24)" rx="2" ry="2" />
<text  x="1158.95" y="191.5" ></text>
</g>
<g >
<title>doca_pe_progress (32,170,466 samples, 0.15%)</title><rect x="10.0" y="277" width="1.8" height="15.0" fill="rgb(214,41,9)" rx="2" ry="2" />
<text  x="13.00" y="287.5" ></text>
</g>
<g >
<title>__aarch64_cas4_acq (117,957,479 samples, 0.55%)</title><rect x="1177.3" y="213" width="6.5" height="15.0" fill="rgb(231,124,29)" rx="2" ry="2" />
<text  x="1180.26" y="223.5" ></text>
</g>
<g >
<title>drain_deferred_tx_acks (128,682,109 samples, 0.60%)</title><rect x="1064.2" y="261" width="7.1" height="15.0" fill="rgb(218,63,15)" rx="2" ry="2" />
<text  x="1067.15" y="271.5" ></text>
</g>
<g >
<title>el0t_64_sync (19,201,259 samples, 0.09%)</title><rect x="1187.9" y="245" width="1.1" height="15.0" fill="rgb(217,56,13)" rx="2" ry="2" />
<text  x="1190.92" y="255.5" ></text>
</g>
<g >
<title>usleep (19,201,259 samples, 0.09%)</title><rect x="1187.9" y="293" width="1.1" height="15.0" fill="rgb(238,155,37)" rx="2" ry="2" />
<text  x="1190.92" y="303.5" ></text>
</g>
<g >
<title>__nanosleep (18,455,774 samples, 0.09%)</title><rect x="1189.0" y="277" width="1.0" height="15.0" fill="rgb(252,217,52)" rx="2" ry="2" />
<text  x="1191.98" y="287.5" ></text>
</g>
<g >
<title>server_send_msg_to_conn (10,724,704 samples, 0.05%)</title><rect x="1176.7" y="229" width="0.6" height="15.0" fill="rgb(217,57,13)" rx="2" ry="2" />
<text  x="1179.67" y="239.5" ></text>
</g>
<g >
<title>__fdget (42,898,343 samples, 0.20%)</title><rect x="862.3" y="85" width="2.3" height="15.0" fill="rgb(214,41,10)" rx="2" ry="2" />
<text  x="865.26" y="95.5" ></text>
</g>
<g >
<title>clock_nanosleep@@GLIBC_2.17 (18,455,774 samples, 0.09%)</title><rect x="1189.0" y="261" width="1.0" height="15.0" fill="rgb(218,60,14)" rx="2" ry="2" />
<text  x="1191.98" y="271.5" ></text>
</g>
<g >
<title>[libdoca_comch.so.3.1.0105] (557,657,036 samples, 2.61%)</title><rect x="279.8" y="197" width="30.8" height="15.0" fill="rgb(227,102,24)" rx="2" ry="2" />
<text  x="282.81" y="207.5" >[l..</text>
</g>
<g >
<title>__arm64_sys_clock_nanosleep (18,374,935 samples, 0.09%)</title><rect x="1189.0" y="149" width="1.0" height="15.0" fill="rgb(206,9,2)" rx="2" ry="2" />
<text  x="1191.98" y="159.5" ></text>
</g>
<g >
<title>doca_pe_progress (16,577,060,639 samples, 77.56%)</title><rect x="148.9" y="261" width="915.3" height="15.0" fill="rgb(214,41,9)" rx="2" ry="2" />
<text  x="151.93" y="271.5" >doca_pe_progress</text>
</g>
<g >
<title>el0_svc_common.constprop.0 (19,201,259 samples, 0.09%)</title><rect x="1187.9" y="181" width="1.1" height="15.0" fill="rgb(224,89,21)" rx="2" ry="2" />
<text  x="1190.92" y="191.5" ></text>
</g>
<g >
<title>invoke_syscall (10,724,607 samples, 0.05%)</title><rect x="1169.0" y="133" width="0.6" height="15.0" fill="rgb(209,18,4)" rx="2" ry="2" />
<text  x="1171.97" y="143.5" ></text>
</g>
<g >
<title>do_nanosleep (18,347,415 samples, 0.09%)</title><rect x="1189.0" y="101" width="1.0" height="15.0" fill="rgb(253,220,52)" rx="2" ry="2" />
<text  x="1191.98" y="111.5" ></text>
</g>
<g >
<title>get_random_u32 (1,629,939,139 samples, 7.63%)</title><rect x="961.7" y="117" width="90.0" height="15.0" fill="rgb(219,68,16)" rx="2" ry="2" />
<text  x="964.73" y="127.5" >get_random..</text>
</g>
<g >
<title>__aarch64_cas4_acq (471,833,427 samples, 2.21%)</title><rect x="1084.9" y="245" width="26.0" height="15.0" fill="rgb(231,124,29)" rx="2" ry="2" />
<text  x="1087.87" y="255.5" >_..</text>
</g>
<g >
<title>doca_task_free (10,720,205 samples, 0.05%)</title><rect x="336.1" y="197" width="0.5" height="15.0" fill="rgb(246,191,45)" rx="2" ry="2" />
<text  x="339.05" y="207.5" ></text>
</g>
<g >
<title>server_send_msg_to_conn (53,623,248 samples, 0.25%)</title><rect x="1184.4" y="197" width="2.9" height="15.0" fill="rgb(217,57,13)" rx="2" ry="2" />
<text  x="1187.37" y="207.5" ></text>
</g>
<g >
<title>do_el0_svc (18,400,869 samples, 0.09%)</title><rect x="1189.0" y="197" width="1.0" height="15.0" fill="rgb(218,60,14)" rx="2" ry="2" />
<text  x="1191.98" y="207.5" ></text>
</g>
<g >
<title>comp_queue_empty (139,411,289 samples, 0.65%)</title><rect x="1141.7" y="245" width="7.7" height="15.0" fill="rgb(244,181,43)" rx="2" ry="2" />
<text  x="1144.74" y="255.5" ></text>
</g>
<g >
<title>run_dpu_worker (21,270,994,336 samples, 99.52%)</title><rect x="13.6" y="277" width="1174.3" height="15.0" fill="rgb(205,3,0)" rx="2" ry="2" />
<text  x="16.55" y="287.5" >run_dpu_worker</text>
</g>
<g >
<title>__arm64_sys_epoll_pwait (96,513,457 samples, 0.45%)</title><rect x="814.9" y="133" width="5.3" height="15.0" fill="rgb(240,165,39)" rx="2" ry="2" />
<text  x="817.90" y="143.5" ></text>
</g>
<g >
<title>__memcpy_generic (42,898,615 samples, 0.20%)</title><rect x="1185.0" y="149" width="2.3" height="15.0" fill="rgb(231,124,29)" rx="2" ry="2" />
<text  x="1187.96" y="159.5" ></text>
</g>
<g >
<title>__GI___pthread_mutex_unlock_usercnt (128,674,271 samples, 0.60%)</title><rect x="1077.8" y="245" width="7.1" height="15.0" fill="rgb(231,123,29)" rx="2" ry="2" />
<text  x="1080.77" y="255.5" ></text>
</g>
<g >
<title>[libdoca_comch.so.3.1.0105] (10,724,704 samples, 0.05%)</title><rect x="1176.7" y="197" width="0.6" height="15.0" fill="rgb(227,102,24)" rx="2" ry="2" />
<text  x="1179.67" y="207.5" ></text>
</g>
<g >
<title>epoll_pwait (12,801,796,411 samples, 59.90%)</title><rect x="346.1" y="229" width="706.8" height="15.0" fill="rgb(215,46,11)" rx="2" ry="2" />
<text  x="349.12" y="239.5" >epoll_pwait</text>
</g>
<g >
<title>arch_local_irq_enable (9,540,051 samples, 0.04%)</title><rect x="1189.0" y="53" width="0.5" height="15.0" fill="rgb(252,216,51)" rx="2" ry="2" />
<text  x="1191.99" y="63.5" ></text>
</g>
<g >
<title>__fget_files (804,264,742 samples, 3.76%)</title><rect x="868.2" y="37" width="44.4" height="15.0" fill="rgb(216,51,12)" rx="2" ry="2" />
<text  x="871.18" y="47.5" >__fg..</text>
</g>
<g >
<title>do_epoll_wait (1,522,748,306 samples, 7.12%)</title><rect x="864.6" y="85" width="84.1" height="15.0" fill="rgb(211,31,7)" rx="2" ry="2" />
<text  x="867.63" y="95.5" >do_epoll_..</text>
</g>
<g >
<title>__GI___pthread_mutex_unlock_usercnt (10,724,233 samples, 0.05%)</title><rect x="1169.6" y="213" width="0.6" height="15.0" fill="rgb(231,123,29)" rx="2" ry="2" />
<text  x="1172.57" y="223.5" ></text>
</g>
<g >
<title>set_user_sigmask (128,687,236 samples, 0.60%)</title><rect x="953.4" y="101" width="7.1" height="15.0" fill="rgb(252,218,52)" rx="2" ry="2" />
<text  x="956.44" y="111.5" ></text>
</g>
<g >
<title>process_completion_queue (21,449,418 samples, 0.10%)</title><rect x="12.4" y="277" width="1.2" height="15.0" fill="rgb(245,185,44)" rx="2" ry="2" />
<text  x="15.37" y="287.5" ></text>
</g>
<g >
<title>el0t_64_sync_handler (19,201,259 samples, 0.09%)</title><rect x="1187.9" y="229" width="1.1" height="15.0" fill="rgb(211,32,7)" rx="2" ry="2" />
<text  x="1190.92" y="239.5" ></text>
</g>
<g >
<title>__aarch64_swp4_rel (375,917,173 samples, 1.76%)</title><rect x="1110.9" y="245" width="20.8" height="15.0" fill="rgb(215,48,11)" rx="2" ry="2" />
<text  x="1113.92" y="255.5" ></text>
</g>
<g >
<title>[libdoca_comch.so.3.1.0105] (64,329,410 samples, 0.30%)</title><rect x="1155.4" y="213" width="3.5" height="15.0" fill="rgb(227,102,24)" rx="2" ry="2" />
<text  x="1158.36" y="223.5" ></text>
</g>
<g >
<title>get_next_dma_desc (10,724,433 samples, 0.05%)</title><rect x="1170.8" y="229" width="0.5" height="15.0" fill="rgb(210,23,5)" rx="2" ry="2" />
<text  x="1173.75" y="239.5" ></text>
</g>
<g >
<title>get_random_u32 (21,444,206 samples, 0.10%)</title><rect x="1167.8" y="101" width="1.2" height="15.0" fill="rgb(219,68,16)" rx="2" ry="2" />
<text  x="1170.79" y="111.5" ></text>
</g>
<g >
<title>get_random_u32 (42,899,035 samples, 0.20%)</title><rect x="820.2" y="133" width="2.4" height="15.0" fill="rgb(219,68,16)" rx="2" ry="2" />
<text  x="823.23" y="143.5" ></text>
</g>
<g >
<title>epoll_pwait (193,017,051 samples, 0.90%)</title><rect x="1158.9" y="213" width="10.7" height="15.0" fill="rgb(215,46,11)" rx="2" ry="2" />
<text  x="1161.91" y="223.5" ></text>
</g>
<g >
<title>clock_nanosleep@@GLIBC_2.17 (19,201,259 samples, 0.09%)</title><rect x="1187.9" y="261" width="1.1" height="15.0" fill="rgb(218,60,14)" rx="2" ry="2" />
<text  x="1190.92" y="271.5" ></text>
</g>
<g >
<title>__libc_start_main@@GLIBC_2.34 (21,335,338,292 samples, 99.82%)</title><rect x="10.0" y="325" width="1177.9" height="15.0" fill="rgb(229,113,27)" rx="2" ry="2" />
<text  x="13.00" y="335.5" >__libc_start_main@@GLIBC_2.34</text>
</g>
<g >
<title>priv_doca_cq_datapath_objects_get (32,172,225 samples, 0.15%)</title><rect x="1052.9" y="229" width="1.8" height="15.0" fill="rgb(239,160,38)" rx="2" ry="2" />
<text  x="1055.90" y="239.5" ></text>
</g>
<g >
<title>__arm64_sys_epoll_pwait (10,725,194 samples, 0.05%)</title><rect x="1167.2" y="101" width="0.6" height="15.0" fill="rgb(240,165,39)" rx="2" ry="2" />
<text  x="1170.20" y="111.5" ></text>
</g>
<g >
<title>invoke_syscall (32,169,400 samples, 0.15%)</title><rect x="1167.2" y="117" width="1.8" height="15.0" fill="rgb(209,18,4)" rx="2" ry="2" />
<text  x="1170.20" y="127.5" ></text>
</g>
<g >
<title>do_el0_svc (19,201,259 samples, 0.09%)</title><rect x="1187.9" y="197" width="1.1" height="15.0" fill="rgb(218,60,14)" rx="2" ry="2" />
<text  x="1190.92" y="207.5" ></text>
</g>
<g >
<title>process_rev_notify_entry (182,305,655 samples, 0.85%)</title><rect x="1177.3" y="245" width="10.0" height="15.0" fill="rgb(240,162,38)" rx="2" ry="2" />
<text  x="1180.26" y="255.5" ></text>
</g>
<g >
<title>el0t_64_sync (150,119,741 samples, 0.70%)</title><rect x="1161.3" y="197" width="8.3" height="15.0" fill="rgb(217,56,13)" rx="2" ry="2" />
<text  x="1164.28" y="207.5" ></text>
</g>
<g >
<title>__GI___pthread_disable_asynccancel (85,780,677 samples, 0.40%)</title><rect x="336.6" y="229" width="4.8" height="15.0" fill="rgb(236,146,34)" rx="2" ry="2" />
<text  x="339.64" y="239.5" ></text>
</g>
<g >
<title>__schedule (18,297,436 samples, 0.09%)</title><rect x="1189.0" y="69" width="1.0" height="15.0" fill="rgb(227,103,24)" rx="2" ry="2" />
<text  x="1191.99" y="79.5" ></text>
</g>
<g >
<title>el0_svc (18,434,231 samples, 0.09%)</title><rect x="1189.0" y="213" width="1.0" height="15.0" fill="rgb(244,183,43)" rx="2" ry="2" />
<text  x="1191.98" y="223.5" ></text>
</g>
<g >
<title>priv_doca_cq_datapath_objects_get@plt (53,621,478 samples, 0.25%)</title><rect x="1061.2" y="245" width="3.0" height="15.0" fill="rgb(205,4,0)" rx="2" ry="2" />
<text  x="1064.19" y="255.5" ></text>
</g>
<g >
<title>priv_doca_cq_poll_one (32,163,685 samples, 0.15%)</title><rect x="1157.1" y="197" width="1.8" height="15.0" fill="rgb(243,177,42)" rx="2" ry="2" />
<text  x="1160.13" y="207.5" ></text>
</g>
<g >
<title>hrtimer_nanosleep (18,347,415 samples, 0.09%)</title><rect x="1189.0" y="117" width="1.0" height="15.0" fill="rgb(237,147,35)" rx="2" ry="2" />
<text  x="1191.98" y="127.5" ></text>
</g>
<g >
<title>server_send_tx_ack_to (64,348,176 samples, 0.30%)</title><rect x="1183.8" y="213" width="3.5" height="15.0" fill="rgb(225,95,22)" rx="2" ry="2" />
<text  x="1186.78" y="223.5" ></text>
</g>
<g >
<title>fput_many (407,531,441 samples, 1.91%)</title><rect x="923.8" y="53" width="22.5" height="15.0" fill="rgb(239,157,37)" rx="2" ry="2" />
<text  x="926.84" y="63.5" >f..</text>
</g>
<g >
<title>[libdoca_comch.so.3.1.0105] (793,548,394 samples, 3.71%)</title><rect x="266.8" y="213" width="43.8" height="15.0" fill="rgb(227,102,24)" rx="2" ry="2" />
<text  x="269.78" y="223.5" >[lib..</text>
</g>
<g >
<title>__fget_light (64,339,378 samples, 0.30%)</title><rect x="913.2" y="69" width="3.5" height="15.0" fill="rgb(233,132,31)" rx="2" ry="2" />
<text  x="916.18" y="79.5" ></text>
</g>
<g >
<title>ep_poll (128,676,717 samples, 0.60%)</title><rect x="916.7" y="69" width="7.1" height="15.0" fill="rgb(238,151,36)" rx="2" ry="2" />
<text  x="919.73" y="79.5" ></text>
</g>
<g >
<title>fput (21,449,566 samples, 0.10%)</title><rect x="951.1" y="85" width="1.2" height="15.0" fill="rgb(225,96,23)" rx="2" ry="2" />
<text  x="954.07" y="95.5" ></text>
</g>
<g >
<title>send_or_defer_tx_ack (64,348,176 samples, 0.30%)</title><rect x="1183.8" y="229" width="3.5" height="15.0" fill="rgb(225,93,22)" rx="2" ry="2" />
<text  x="1186.78" y="239.5" ></text>
</g>
<g >
<title>comp_queue_peek (10,724,805 samples, 0.05%)</title><rect x="148.3" y="261" width="0.6" height="15.0" fill="rgb(235,141,33)" rx="2" ry="2" />
<text  x="151.34" y="271.5" ></text>
</g>
<g >
<title>server_send_task_completion_callback (10,720,205 samples, 0.05%)</title><rect x="336.1" y="213" width="0.5" height="15.0" fill="rgb(222,80,19)" rx="2" ry="2" />
<text  x="339.05" y="223.5" ></text>
</g>
<g >
<title>pthread_mutex_unlock@plt (10,724,003 samples, 0.05%)</title><rect x="1187.3" y="261" width="0.6" height="15.0" fill="rgb(247,194,46)" rx="2" ry="2" />
<text  x="1190.33" y="271.5" ></text>
</g>
<g >
<title>__aarch64_swp4_rel (21,449,285 samples, 0.10%)</title><rect x="343.7" y="197" width="1.2" height="15.0" fill="rgb(215,48,11)" rx="2" ry="2" />
<text  x="346.75" y="207.5" ></text>
</g>
<g >
<title>[libdoca_comch.so.3.1.0105] (42,898,615 samples, 0.20%)</title><rect x="1185.0" y="165" width="2.3" height="15.0" fill="rgb(227,102,24)" rx="2" ry="2" />
<text  x="1187.96" y="175.5" ></text>
</g>
<g >
<title>__fget_light (814,989,705 samples, 3.81%)</title><rect x="868.2" y="53" width="45.0" height="15.0" fill="rgb(233,132,31)" rx="2" ry="2" />
<text  x="871.18" y="63.5" >__fg..</text>
</g>
<g >
<title>pthread_mutex_lock@@GLIBC_2.17 (10,724,976 samples, 0.05%)</title><rect x="1170.2" y="213" width="0.6" height="15.0" fill="rgb(234,136,32)" rx="2" ry="2" />
<text  x="1173.16" y="223.5" ></text>
</g>
<g >
<title>common_nsleep (18,347,415 samples, 0.09%)</title><rect x="1189.0" y="133" width="1.0" height="15.0" fill="rgb(227,105,25)" rx="2" ry="2" />
<text  x="1191.98" y="143.5" ></text>
</g>
<g >
<title>usleep (18,455,774 samples, 0.09%)</title><rect x="1189.0" y="293" width="1.0" height="15.0" fill="rgb(238,155,37)" rx="2" ry="2" />
<text  x="1191.98" y="303.5" ></text>
</g>
<g >
<title>server_send_msg_to_conn (85,783,692 samples, 0.40%)</title><rect x="1171.9" y="197" width="4.8" height="15.0" fill="rgb(217,57,13)" rx="2" ry="2" />
<text  x="1174.93" y="207.5" ></text>
</g>
<g >
<title>invoke_syscall (19,174,856 samples, 0.09%)</title><rect x="1187.9" y="165" width="1.1" height="15.0" fill="rgb(209,18,4)" rx="2" ry="2" />
<text  x="1190.92" y="175.5" ></text>
</g>
<g >
<title>do_epoll_pwait.part.0 (10,725,194 samples, 0.05%)</title><rect x="1167.2" y="85" width="0.6" height="15.0" fill="rgb(248,197,47)" rx="2" ry="2" />
<text  x="1170.20" y="95.5" ></text>
</g>
<g >
<title>hrtimer_nanosleep (19,174,856 samples, 0.09%)</title><rect x="1187.9" y="117" width="1.1" height="15.0" fill="rgb(237,147,35)" rx="2" ry="2" />
<text  x="1190.92" y="127.5" ></text>
</g>
<g >
<title>main (21,335,338,292 samples, 99.82%)</title><rect x="10.0" y="293" width="1177.9" height="15.0" fill="rgb(243,179,42)" rx="2" ry="2" />
<text  x="13.00" y="303.5" >main</text>
</g>
<g >
<title>__arm64_sys_epoll_pwait (2,134,005,336 samples, 9.98%)</title><rect x="842.7" y="117" width="117.8" height="15.0" fill="rgb(240,165,39)" rx="2" ry="2" />
<text  x="845.73" y="127.5" >__arm64_sys_ep..</text>
</g>
<g >
<title>[libdoca_comch.so.3.1.0105] (10,726,753 samples, 0.05%)</title><rect x="1176.1" y="165" width="0.6" height="15.0" fill="rgb(227,102,24)" rx="2" ry="2" />
<text  x="1179.08" y="175.5" ></text>
</g>
<g >
<title>invoke_syscall (4,160,715,654 samples, 19.47%)</title><rect x="822.6" y="133" width="229.7" height="15.0" fill="rgb(209,18,4)" rx="2" ry="2" />
<text  x="825.60" y="143.5" >invoke_syscall</text>
</g>
<g >
<title>thread_start (37,677,984 samples, 0.18%)</title><rect x="1187.9" y="341" width="2.1" height="15.0" fill="rgb(212,34,8)" rx="2" ry="2" />
<text  x="1190.92" y="351.5" ></text>
</g>
<g >
<title>[[vdso]] (1,297,552,183 samples, 6.07%)</title><rect x="76.7" y="245" width="71.6" height="15.0" fill="rgb(218,60,14)" rx="2" ry="2" />
<text  x="79.70" y="255.5" >[[vdso]]</text>
</g>
<g >
<title>server_send_tx_ack_to (96,508,906 samples, 0.45%)</title><rect x="1171.3" y="213" width="5.4" height="15.0" fill="rgb(225,95,22)" rx="2" ry="2" />
<text  x="1174.34" y="223.5" ></text>
</g>
<g >
<title>invoke_syscall (18,374,935 samples, 0.09%)</title><rect x="1189.0" y="165" width="1.0" height="15.0" fill="rgb(209,18,4)" rx="2" ry="2" />
<text  x="1191.98" y="175.5" ></text>
</g>
<g >
<title>doca_pool_try_acquire (32,174,858 samples, 0.15%)</title><rect x="1173.7" y="181" width="1.8" height="15.0" fill="rgb(251,214,51)" rx="2" ry="2" />
<text  x="1176.71" y="191.5" ></text>
</g>
<g >
<title>common_nsleep (19,174,856 samples, 0.09%)</title><rect x="1187.9" y="133" width="1.1" height="15.0" fill="rgb(227,105,25)" rx="2" ry="2" />
<text  x="1190.92" y="143.5" ></text>
</g>
<g >
<title>doca_comch_consumer_task_post_recv_get_imm_data_len (10,724,573 samples, 0.05%)</title><rect x="345.5" y="229" width="0.6" height="15.0" fill="rgb(233,132,31)" rx="2" ry="2" />
<text  x="348.53" y="239.5" ></text>
</g>
<g >
<title>fput_many (42,875,839 samples, 0.20%)</title><rect x="946.3" y="69" width="2.4" height="15.0" fill="rgb(239,157,37)" rx="2" ry="2" />
<text  x="949.34" y="79.5" ></text>
</g>
<g >
<title>schedule (18,297,436 samples, 0.09%)</title><rect x="1189.0" y="85" width="1.0" height="15.0" fill="rgb(254,229,54)" rx="2" ry="2" />
<text  x="1191.99" y="95.5" ></text>
</g>
<g >
<title>doca_task_submit (42,898,615 samples, 0.20%)</title><rect x="1185.0" y="181" width="2.3" height="15.0" fill="rgb(233,130,31)" rx="2" ry="2" />
<text  x="1187.96" y="191.5" ></text>
</g>
<g >
<title>[libdoca_comch.so.3.1.0105] (289,520,781 samples, 1.35%)</title><rect x="1153.6" y="229" width="16.0" height="15.0" fill="rgb(227,102,24)" rx="2" ry="2" />
<text  x="1156.58" y="239.5" ></text>
</g>
<g >
<title>epoll_pwait (32,169,606 samples, 0.15%)</title><rect x="1054.7" y="245" width="1.8" height="15.0" fill="rgb(215,46,11)" rx="2" ry="2" />
<text  x="1057.68" y="255.5" ></text>
</g>
<g >
<title>ep_poll (42,897,648 samples, 0.20%)</title><rect x="948.7" y="85" width="2.4" height="15.0" fill="rgb(238,151,36)" rx="2" ry="2" />
<text  x="951.70" y="95.5" ></text>
</g>
<g >
<title>_start (21,335,338,292 samples, 99.82%)</title><rect x="10.0" y="341" width="1177.9" height="15.0" fill="rgb(245,185,44)" rx="2" ry="2" />
<text  x="13.00" y="351.5" >_start</text>
</g>
<g >
<title>__fdget (814,989,705 samples, 3.81%)</title><rect x="868.2" y="69" width="45.0" height="15.0" fill="rgb(214,41,10)" rx="2" ry="2" />
<text  x="871.18" y="79.5" >__fd..</text>
</g>
<g >
<title>[libdoca_comch.so.3.1.0105] (75,070,402 samples, 0.35%)</title><rect x="292.8" y="181" width="4.2" height="15.0" fill="rgb(227,102,24)" rx="2" ry="2" />
<text  x="295.83" y="191.5" ></text>
</g>
<g >
<title>el0_svc_common.constprop.0 (139,395,134 samples, 0.65%)</title><rect x="1161.3" y="133" width="7.7" height="15.0" fill="rgb(224,89,21)" rx="2" ry="2" />
<text  x="1164.28" y="143.5" ></text>
</g>
<g >
<title>el0t_64_sync_handler (150,119,741 samples, 0.70%)</title><rect x="1161.3" y="181" width="8.3" height="15.0" fill="rgb(211,32,7)" rx="2" ry="2" />
<text  x="1164.28" y="191.5" ></text>
</g>
<g >
<title>priv_doca_cq_poll_one (235,937,173 samples, 1.10%)</title><rect x="297.0" y="181" width="13.0" height="15.0" fill="rgb(243,177,42)" rx="2" ry="2" />
<text  x="299.98" y="191.5" ></text>
</g>
<g >
<title>el0_svc (150,119,741 samples, 0.70%)</title><rect x="1161.3" y="165" width="8.3" height="15.0" fill="rgb(244,183,43)" rx="2" ry="2" />
<text  x="1164.28" y="175.5" ></text>
</g>
<g >
<title>dpumesh_dpu (21,373,016,276 samples, 100.00%)</title><rect x="10.0" y="357" width="1180.0" height="15.0" fill="rgb(227,105,25)" rx="2" ry="2" />
<text  x="13.00" y="367.5" >dpumesh_dpu</text>
</g>
<g >
<title>[libdoca_comch.so.3.1.0105] (32,165,725 samples, 0.15%)</title><rect x="1155.4" y="197" width="1.7" height="15.0" fill="rgb(227,102,24)" rx="2" ry="2" />
<text  x="1158.36" y="207.5" ></text>
</g>
<g >
<title>objects_drain_consumer_retry (1,212,342,012 samples, 5.67%)</title><rect x="1071.3" y="261" width="66.9" height="15.0" fill="rgb(240,162,38)" rx="2" ry="2" />
<text  x="1074.26" y="271.5" >objects..</text>
</g>
</g>
</svg>
